<svg xmlns="http://www.w3.org/2000/svg" xmlns:xlink="http://www.w3.org/1999/xlink" width="1230" height="776.43"><rect width="1230" height="776.43" rx="5" ry="5" class="a"/><svg y="0%" x="0%"><circle cx="20" cy="20" r="6" fill="#ff5f58"/><circle cx="40" cy="20" r="6" fill="#ffbd2e"/><circle cx="60" cy="20" r="6" fill="#18c132"/></svg><svg height="716.43" viewBox="0 0 119 71.643" width="1190" x="15" xmlns="http://www.w3.org/2000/svg" xmlns:xlink="http://www.w3.org/1999/xlink" y="50"><style>@keyframes m{0%{transform:translateX(0)}1.11%{transform:translateX(-119px)}2.68%{transform:translateX(-238px)}3.23%{transform:translateX(-357px)}3.99%{transform:translateX(-476px)}5.5%{transform:translateX(-595px)}6.3%{transform:translateX(-714px)}7.87%{transform:translateX(-952px)}9.44%{transform:translateX(-1071px)}9.89%{transform:translateX(-1190px)}11.46%{transform:translateX(-1309px)}12.58%{transform:translateX(-1428px)}13.27%{transform:translateX(-1547px)}14.84%{transform:translateX(-1666px)}16.16%{transform:translateX(-1785px)}17.73%{transform:translateX(-1904px)}18.29%{transform:translateX(-2023px)}18.75%{transform:translateX(-2142px)}20.32%{transform:translateX(-2261px)}20.92%{transform:translateX(-2380px)}22.49%{transform:translateX(-2499px)}23.84%{transform:translateX(-2737px)}25.41%{transform:translateX(-2975px)}25.43%{transform:translateX(-3094px)}25.44%{transform:translateX(-3213px)}25.6%{transform:translateX(-3451px)}25.81%{transform:translateX(-3570px)}25.82%{transform:translateX(-3689px)}27.39%{transform:translateX(-3927px)}27.49%{transform:translateX(-4046px)}29.06%{transform:translateX(-4165px)}29.61%{transform:translateX(-4284px)}30.35%{transform:translateX(-4403px)}31.89%{transform:translateX(-4522px)}32.4%{transform:translateX(-4641px)}33.97%{transform:translateX(-4760px)}33.98%{transform:translateX(-4879px)}35.55%{transform:translateX(-4998px)}35.94%{transform:translateX(-5117px)}37.51%{transform:translateX(-5236px)}38.32%{transform:translateX(-5355px)}39%{transform:translateX(-5474px)}40.53%{transform:translateX(-5593px)}41.92%{transform:translateX(-5712px)}42.3%{transform:translateX(-5831px)}43.87%{transform:translateX(-5950px)}45.02%{transform:translateX(-6069px)}46.6%{transform:translateX(-6188px)}47.03%{transform:translateX(-6307px)}48.6%{transform:translateX(-6426px)}50.17%{transform:translateX(-6545px)}50.23%{transform:translateX(-6664px)}50.24%{transform:translateX(-7021px)}51.81%{transform:translateX(-7140px)}53.38%{transform:translateX(-7259px)}53.79%{transform:translateX(-7378px)}55.36%{transform:translateX(-7497px)}56.93%{transform:translateX(-7616px)}57.4%{transform:translateX(-7735px)}58.97%{transform:translateX(-7973px)}60.55%{transform:translateX(-8092px)}60.8%{transform:translateX(-8211px)}61.46%{transform:translateX(-8330px)}62.78%{transform:translateX(-8449px)}63.13%{transform:translateX(-8568px)}64.7%{transform:translateX(-8806px)}66.27%{transform:translateX(-8925px)}67.84%{transform:translateX(-9044px)}68.41%{transform:translateX(-9163px)}68.9%{transform:translateX(-9282px)}70.47%{transform:translateX(-9401px)}72.04%{transform:translateX(-9520px)}73.3%{transform:translateX(-9639px)}73.75%{transform:translateX(-9758px)}75.32%{transform:translateX(-9877px)}76.2%{transform:translateX(-9996px)}77.77%{transform:translateX(-10115px)}78.53%{transform:translateX(-10234px)}80.06%{transform:translateX(-10353px)}81.63%{transform:translateX(-10472px)}81.71%{transform:translateX(-10591px)}81.72%{transform:translateX(-10948px)}83.29%{transform:translateX(-11067px)}84.86%{transform:translateX(-11186px)}85.26%{transform:translateX(-11305px)}86.83%{transform:translateX(-11424px)}88.4%{transform:translateX(-11543px)}88.96%{transform:translateX(-11662px)}90.53%{transform:translateX(-11781px)}92.1%{transform:translateX(-11900px)}92.49%{transform:translateX(-12019px)}93.32%{transform:translateX(-12138px)}94.89%{transform:translateX(-12257px)}96.46%{transform:translateX(-12376px)}96.86%{transform:translateX(-12495px)}98.43%{transform:translateX(-12733px)}to{transform:translateX(-12852px)}}.a{fill:#282d35}.f{fill:#a8cc8c;font-weight:700;white-space:pre}.g{fill:#b9c0cb}.g,.h,.i{white-space:pre}.h{fill:#71bef2;font-weight:700}.i{fill:#a8cc8c}</style><g font-family="Monaco,Consolas,Menlo,'Bitstream Vera Sans Mono','Powerline Symbols',monospace" font-size="1.67"><defs><symbol id="1"><text y="1.67" class="f">aktm@aktm-VirtualBox</text><text x="20.04" y="1.67" class="g">:</text><text x="21.042" y="1.67" class="h">~/php-project-lvl1</text><text x="39.078" y="1.67" class="g">$</text></symbol><symbol id="2"><text y="1.67" class="f">aktm@aktm-VirtualBox</text><text x="20.04" y="1.67" class="g">:</text><text x="21.042" y="1.67" class="h">~/php-project-lvl1</text><text x="39.078" y="1.67" class="g">$</text><text x="41.082" y="1.67" class="g">c</text></symbol><symbol id="3"><text y="1.67" class="f">aktm@aktm-VirtualBox</text><text x="20.04" y="1.67" class="g">:</text><text x="21.042" y="1.67" class="h">~/php-project-lvl1</text><text x="39.078" y="1.67" class="g">$</text><text x="41.082" y="1.67" class="g">cl</text></symbol><symbol id="4"><text y="1.67" class="f">aktm@aktm-VirtualBox</text><text x="20.04" y="1.67" class="g">:</text><text x="21.042" y="1.67" class="h">~/php-project-lvl1</text><text x="39.078" y="1.67" class="g">$</text><text x="41.082" y="1.67" class="g">cle</text></symbol><symbol id="5"><text y="1.67" class="f">aktm@aktm-VirtualBox</text><text x="20.04" y="1.67" class="g">:</text><text x="21.042" y="1.67" class="h">~/php-project-lvl1</text><text x="39.078" y="1.67" class="g">$</text><text x="41.082" y="1.67" class="g">clea</text></symbol><symbol id="6"><text y="1.67" class="f">aktm@aktm-VirtualBox</text><text x="20.04" y="1.67" class="g">:</text><text x="21.042" y="1.67" class="h">~/php-project-lvl1</text><text x="39.078" y="1.67" class="g">$</text><text x="41.082" y="1.67" class="g">clear</text></symbol><symbol id="7"><text y="1.67" class="f">aktm@aktm-VirtualBox</text><text x="20.04" y="1.67" class="g">:</text><text x="21.042" y="1.67" class="h">~/php-project-lvl1</text><text x="39.078" y="1.67" class="g">$</text><text x="41.082" y="1.67" class="g">m</text></symbol><symbol id="8"><text y="1.67" class="f">aktm@aktm-VirtualBox</text><text x="20.04" y="1.67" class="g">:</text><text x="21.042" y="1.67" class="h">~/php-project-lvl1</text><text x="39.078" y="1.67" class="g">$</text><text x="41.082" y="1.67" class="g">ma</text></symbol><symbol id="9"><text y="1.67" class="f">aktm@aktm-VirtualBox</text><text x="20.04" y="1.67" class="g">:</text><text x="21.042" y="1.67" class="h">~/php-project-lvl1</text><text x="39.078" y="1.67" class="g">$</text><text x="41.082" y="1.67" class="g">mak</text></symbol><symbol id="10"><text y="1.67" class="f">aktm@aktm-VirtualBox</text><text x="20.04" y="1.67" class="g">:</text><text x="21.042" y="1.67" class="h">~/php-project-lvl1</text><text x="39.078" y="1.67" class="g">$</text><text x="41.082" y="1.67" class="g">make</text></symbol><symbol id="11"><text y="1.67" class="f">aktm@aktm-VirtualBox</text><text x="20.04" y="1.67" class="g">:</text><text x="21.042" y="1.67" class="h">~/php-project-lvl1</text><text x="39.078" y="1.67" class="g">$</text><text x="41.082" y="1.67" class="g">make</text><text x="46.092" y="1.67" class="g">install</text></symbol><symbol id="12"><text y="1.67" class="g">composer</text><text x="9.018" y="1.67" class="g">install</text></symbol><symbol id="13"><text y="1.67" class="i">Installing</text><text x="11.022" y="1.67" class="i">dependencies</text><text x="24.048" y="1.67" class="i">from</text><text x="29.058" y="1.67" class="i">lock</text><text x="34.068" y="1.67" class="i">file</text><text x="39.078" y="1.67" class="i">(including</text><text x="50.1" y="1.67" class="i">require-dev)</text></symbol><symbol id="14"><text y="1.67" class="i">Verifying</text><text x="10.02" y="1.67" class="i">lock</text><text x="15.03" y="1.67" class="i">file</text><text x="20.04" y="1.67" class="i">contents</text><text x="29.058" y="1.67" class="i">can</text><text x="33.066" y="1.67" class="i">be</text><text x="36.072" y="1.67" class="i">installed</text><text x="46.092" y="1.67" class="i">on</text><text x="49.098" y="1.67" class="i">current</text><text x="57.114" y="1.67" class="i">platform.</text></symbol><symbol id="15"><text y="1.67" class="i">Package</text><text x="8.016" y="1.67" class="i">operations:</text><text x="20.04" y="1.67" class="i">1</text><text x="22.044" y="1.67" class="i">install,</text><text x="31.062" y="1.67" class="i">0</text><text x="33.066" y="1.67" class="i">updates,</text><text x="42.084" y="1.67" class="i">0</text><text x="44.088" y="1.67" class="i">removals</text></symbol><symbol id="16"><text x="2.004" y="1.67" class="g">-</text><text x="4.008" y="1.67" class="g">Installing</text><text x="15.03" y="1.67" class="i">squizlabs/php_codesniffer</text><text x="41.082" y="1.67" class="g">(</text><text x="42.084" y="1.67" style="white-space:pre" fill="#dbab79">3.5.8</text><text x="47.094" y="1.67" class="g">):</text><text x="50.1" y="1.67" class="g">Extracting</text><text x="61.122" y="1.67" class="g">archive</text></symbol><symbol id="17"><text y="1.67" class="i">Generating</text><text x="11.022" y="1.67" class="i">autoload</text><text x="20.04" y="1.67" class="i">files</text></symbol><symbol id="18"><text y="1.67" class="f">aktm@aktm-VirtualBox</text><text x="20.04" y="1.67" class="g">:</text><text x="21.042" y="1.67" class="h">~/php-project-lvl1</text><text x="39.078" y="1.67" class="g">$</text><text x="41.082" y="1.67" class="g">make</text><text x="46.092" y="1.67" class="g">b</text></symbol><symbol id="19"><text y="1.67" class="f">aktm@aktm-VirtualBox</text><text x="20.04" y="1.67" class="g">:</text><text x="21.042" y="1.67" class="h">~/php-project-lvl1</text><text x="39.078" y="1.67" class="g">$</text><text x="41.082" y="1.67" class="g">make</text><text x="46.092" y="1.67" class="g">br</text></symbol><symbol id="20"><text y="1.67" class="f">aktm@aktm-VirtualBox</text><text x="20.04" y="1.67" class="g">:</text><text x="21.042" y="1.67" class="h">~/php-project-lvl1</text><text x="39.078" y="1.67" class="g">$</text><text x="41.082" y="1.67" class="g">make</text><text x="46.092" y="1.67" class="g">bra</text></symbol><symbol id="21"><text y="1.67" class="f">aktm@aktm-VirtualBox</text><text x="20.04" y="1.67" class="g">:</text><text x="21.042" y="1.67" class="h">~/php-project-lvl1</text><text x="39.078" y="1.67" class="g">$</text><text x="41.082" y="1.67" class="g">make</text><text x="46.092" y="1.67" class="g">brai</text></symbol><symbol id="22"><text y="1.67" class="f">aktm@aktm-VirtualBox</text><text x="20.04" y="1.67" class="g">:</text><text x="21.042" y="1.67" class="h">~/php-project-lvl1</text><text x="39.078" y="1.67" class="g">$</text><text x="41.082" y="1.67" class="g">make</text><text x="46.092" y="1.67" class="g">brain</text></symbol><symbol id="23"><text y="1.67" class="f">aktm@aktm-VirtualBox</text><text x="20.04" y="1.67" class="g">:</text><text x="21.042" y="1.67" class="h">~/php-project-lvl1</text><text x="39.078" y="1.67" class="g">$</text><text x="41.082" y="1.67" class="g">make</text><text x="46.092" y="1.67" class="g">brain-</text></symbol><symbol id="24"><text y="1.67" class="f">aktm@aktm-VirtualBox</text><text x="20.04" y="1.67" class="g">:</text><text x="21.042" y="1.67" class="h">~/php-project-lvl1</text><text x="39.078" y="1.67" class="g">$</text><text x="41.082" y="1.67" class="g">make</text><text x="46.092" y="1.67" class="g">brain-e</text></symbol><symbol id="25"><text y="1.67" class="f">aktm@aktm-VirtualBox</text><text x="20.04" y="1.67" class="g">:</text><text x="21.042" y="1.67" class="h">~/php-project-lvl1</text><text x="39.078" y="1.67" class="g">$</text><text x="41.082" y="1.67" class="g">make</text><text x="46.092" y="1.67" class="g">brain-even</text></symbol><symbol id="26"><text y="1.67" class="g">./bin/brain-even.php</text></symbol><symbol id="27"><text y="1.67" class="g">Welcome</text><text x="8.016" y="1.67" class="g">to</text><text x="11.022" y="1.67" class="g">the</text><text x="15.03" y="1.67" class="g">Brain</text><text x="21.042" y="1.67" class="g">games!</text></symbol><symbol id="28"><text y="1.67" class="g">May</text><text x="4.008" y="1.67" class="g">I</text><text x="6.012" y="1.67" class="g">have</text><text x="11.022" y="1.67" class="g">your</text><text x="16.032" y="1.67" class="g">name?:</text></symbol><symbol id="29"><text y="1.67" class="g">May</text><text x="4.008" y="1.67" class="g">I</text><text x="6.012" y="1.67" class="g">have</text><text x="11.022" y="1.67" class="g">your</text><text x="16.032" y="1.67" class="g">name?:</text><text x="23.046" y="1.67" class="g">N</text></symbol><symbol id="30"><text y="1.67" class="g">May</text><text x="4.008" y="1.67" class="g">I</text><text x="6.012" y="1.67" class="g">have</text><text x="11.022" y="1.67" class="g">your</text><text x="16.032" y="1.67" class="g">name?:</text><text x="23.046" y="1.67" class="g">Ne</text></symbol><symbol id="31"><text y="1.67" class="g">May</text><text x="4.008" y="1.67" class="g">I</text><text x="6.012" y="1.67" class="g">have</text><text x="11.022" y="1.67" class="g">your</text><text x="16.032" y="1.67" class="g">name?:</text><text x="23.046" y="1.67" class="g">Neo</text></symbol><symbol id="32"><text y="1.67" class="g">Hello,</text><text x="7.014" y="1.67" class="g">Neo</text></symbol><symbol id="33"><text y="1.67" class="g">Answer</text><text x="7.014" y="1.67" class="g">&quot;yes&quot;</text><text x="13.026" y="1.67" class="g">if</text><text x="16.032" y="1.67" class="g">the</text><text x="20.04" y="1.67" class="g">number</text><text x="27.054" y="1.67" class="g">is</text><text x="30.06" y="1.67" class="g">even,</text><text x="36.072" y="1.67" class="g">otherwise</text><text x="46.092" y="1.67" class="g">answer</text><text x="53.106" y="1.67" class="g">&quot;no&quot;.</text></symbol><symbol id="34"><text y="1.67" class="g">Question:</text><text x="10.02" y="1.67" class="g">68</text></symbol><symbol id="35"><text y="1.67" class="g">Your</text><text x="5.01" y="1.67" class="g">answer:</text></symbol><symbol id="36"><text y="1.67" class="g">Your</text><text x="5.01" y="1.67" class="g">answer:</text><text x="13.026" y="1.67" class="g">n</text></symbol><symbol id="37"><text y="1.67" class="g">Your</text><text x="5.01" y="1.67" class="g">answer:</text><text x="13.026" y="1.67" class="g">no</text></symbol><symbol id="38"><text y="1.67" class="g">&apos;no&apos;</text><text x="5.01" y="1.67" class="g">is</text><text x="8.016" y="1.67" class="g">wrong</text><text x="14.028" y="1.67" class="g">answer</text><text x="21.042" y="1.67" class="g">;(.</text><text x="25.05" y="1.67" class="g">Correct</text><text x="33.066" y="1.67" class="g">answer</text><text x="40.08" y="1.67" class="g">was</text><text x="44.088" y="1.67" class="g">&apos;yes&apos;.</text></symbol><symbol id="39"><text y="1.67" class="g">Let&apos;s</text><text x="6.012" y="1.67" class="g">try</text><text x="10.02" y="1.67" class="g">again,</text><text x="17.034" y="1.67" class="g">Neo!</text></symbol><symbol id="40"><text y="1.67" class="g">Question:</text><text x="10.02" y="1.67" class="g">73</text></symbol><symbol id="41"><text y="1.67" class="g">Correct!</text></symbol><symbol id="42"><text y="1.67" class="g">Question:</text><text x="10.02" y="1.67" class="g">24</text></symbol><symbol id="43"><text y="1.67" class="g">Your</text><text x="5.01" y="1.67" class="g">answer:</text><text x="13.026" y="1.67" class="g">yes</text></symbol><symbol id="44"><text y="1.67" class="g">Question:</text><text x="10.02" y="1.67" class="g">71</text></symbol><symbol id="45"><text y="1.67" class="g">Congratulations,</text><text x="17.034" y="1.67" class="g">Neo!</text></symbol><symbol id="a"><path fill="transparent" d="M0 0h119v33H0z"/></symbol><symbol id="b"><path fill="#6f7683" d="M0 0h1.102v2.171H0z"/></symbol></defs><path class="a" d="M0 0h119v71.643H0z"/><g style="animation-duration:25.472625s;animation-iteration-count:infinite;animation-name:m;animation-timing-function:steps(1,end)"><svg width="12971"><svg><use xlink:href="#a"/><use xlink:href="#b" x="-.004"/></svg><svg x="119"><use xlink:href="#a"/><use xlink:href="#b" x="40.996"/><use xlink:href="#1"/></svg><svg x="238"><use xlink:href="#a"/><use xlink:href="#b" x="41.996"/><use xlink:href="#2"/></svg><svg x="357"><use xlink:href="#a"/><use xlink:href="#b" x="42.996"/><use xlink:href="#3"/></svg><svg x="476"><use xlink:href="#a"/><use xlink:href="#b" x="43.996"/><use xlink:href="#4"/></svg><svg x="595"><use xlink:href="#a"/><use xlink:href="#b" x="44.996"/><use xlink:href="#5"/></svg><svg x="714"><use xlink:href="#a"/><use xlink:href="#b" x="45.996"/><use xlink:href="#6"/></svg><svg x="833"><use xlink:href="#a"/><use xlink:href="#b" x="-.004"/></svg><svg x="952"><use xlink:href="#a"/><use xlink:href="#b" x="40.996"/><use xlink:href="#1"/></svg><svg x="1071"><use xlink:href="#a"/><use xlink:href="#b" x="41.996"/><use xlink:href="#7"/></svg><svg x="1190"><use xlink:href="#a"/><use xlink:href="#b" x="42.996"/><use xlink:href="#8"/></svg><svg x="1309"><use xlink:href="#a"/><use xlink:href="#b" x="43.996"/><use xlink:href="#9"/></svg><svg x="1428"><use xlink:href="#a"/><use xlink:href="#b" x="44.996"/><use xlink:href="#10"/></svg><svg x="1547"><use xlink:href="#a"/><use xlink:href="#b" x="45.996"/><use xlink:href="#10"/></svg><svg x="1666"><use xlink:href="#a"/><use xlink:href="#b" x="46.996"/><text y="1.67" class="f">aktm@aktm-VirtualBox</text><text x="20.04" y="1.67" class="g">:</text><text x="21.042" y="1.67" class="h">~/php-project-lvl1</text><text x="39.078" y="1.67" class="g">$</text><text x="41.082" y="1.67" class="g">make</text><text x="46.092" y="1.67" class="g">i</text></svg><svg x="1785"><use xlink:href="#a"/><use xlink:href="#b" x="47.996"/><text y="1.67" class="f">aktm@aktm-VirtualBox</text><text x="20.04" y="1.67" class="g">:</text><text x="21.042" y="1.67" class="h">~/php-project-lvl1</text><text x="39.078" y="1.67" class="g">$</text><text x="41.082" y="1.67" class="g">make</text><text x="46.092" y="1.67" class="g">in</text></svg><svg x="1904"><use xlink:href="#a"/><use xlink:href="#b" x="48.996"/><text y="1.67" class="f">aktm@aktm-VirtualBox</text><text x="20.04" y="1.67" class="g">:</text><text x="21.042" y="1.67" class="h">~/php-project-lvl1</text><text x="39.078" y="1.67" class="g">$</text><text x="41.082" y="1.67" class="g">make</text><text x="46.092" y="1.67" class="g">ins</text></svg><svg x="2023"><use xlink:href="#a"/><use xlink:href="#b" x="49.996"/><text y="1.67" class="f">aktm@aktm-VirtualBox</text><text x="20.04" y="1.67" class="g">:</text><text x="21.042" y="1.67" class="h">~/php-project-lvl1</text><text x="39.078" y="1.67" class="g">$</text><text x="41.082" y="1.67" class="g">make</text><text x="46.092" y="1.67" class="g">inst</text></svg><svg x="2142"><use xlink:href="#a"/><use xlink:href="#b" x="50.996"/><text y="1.67" class="f">aktm@aktm-VirtualBox</text><text x="20.04" y="1.67" class="g">:</text><text x="21.042" y="1.67" class="h">~/php-project-lvl1</text><text x="39.078" y="1.67" class="g">$</text><text x="41.082" y="1.67" class="g">make</text><text x="46.092" y="1.67" class="g">insta</text></svg><svg x="2261"><use xlink:href="#a"/><use xlink:href="#b" x="51.996"/><text y="1.67" class="f">aktm@aktm-VirtualBox</text><text x="20.04" y="1.67" class="g">:</text><text x="21.042" y="1.67" class="h">~/php-project-lvl1</text><text x="39.078" y="1.67" class="g">$</text><text x="41.082" y="1.67" class="g">make</text><text x="46.092" y="1.67" class="g">instal</text></svg><svg x="2380"><use xlink:href="#a"/><use xlink:href="#b" x="52.996"/><use xlink:href="#11"/></svg><svg x="2499"><use xlink:href="#a"/><use xlink:href="#b" x="-.004" y="2.146"/><use xlink:href="#11"/></svg><svg x="2618"><use xlink:href="#a"/><use xlink:href="#b" x="15.996" y="2.146"/><use xlink:href="#11"/><use xlink:href="#12" y="2.171"/></svg><svg x="2737"><use xlink:href="#a"/><use xlink:href="#b" x="-.004" y="4.317"/><use xlink:href="#11"/><use xlink:href="#12" y="2.171"/></svg><svg x="2856"><use xlink:href="#a"/><use xlink:href="#b" x="61.996" y="4.317"/><use xlink:href="#11"/><use xlink:href="#12" y="2.171"/><use xlink:href="#13" y="4.342"/></svg><svg x="2975"><use xlink:href="#a"/><use xlink:href="#b" x="-.004" y="6.488"/><use xlink:href="#11"/><use xlink:href="#12" y="2.171"/><use xlink:href="#13" y="4.342"/></svg><svg x="3094"><use xlink:href="#a"/><use xlink:href="#b" x="65.996" y="6.488"/><use xlink:href="#11"/><use xlink:href="#12" y="2.171"/><use xlink:href="#13" y="4.342"/><use xlink:href="#14" y="6.513"/></svg><svg x="3213"><use xlink:href="#a"/><use xlink:href="#b" x="-.004" y="8.659"/><use xlink:href="#11"/><use xlink:href="#12" y="2.171"/><use xlink:href="#13" y="4.342"/><use xlink:href="#14" y="6.513"/></svg><svg x="3332"><use xlink:href="#a"/><use xlink:href="#b" x="51.996" y="8.659"/><use xlink:href="#11"/><use xlink:href="#12" y="2.171"/><use xlink:href="#13" y="4.342"/><use xlink:href="#14" y="6.513"/><use xlink:href="#15" y="8.684"/></svg><svg x="3451"><use xlink:href="#a"/><use xlink:href="#b" x="-.004" y="10.83"/><use xlink:href="#11"/><use xlink:href="#12" y="2.171"/><use xlink:href="#13" y="4.342"/><use xlink:href="#14" y="6.513"/><use xlink:href="#15" y="8.684"/></svg><svg x="3570"><use xlink:href="#a"/><use xlink:href="#b" x="67.996" y="10.83"/><use xlink:href="#11"/><use xlink:href="#12" y="2.171"/><use xlink:href="#13" y="4.342"/><use xlink:href="#14" y="6.513"/><use xlink:href="#15" y="8.684"/><use xlink:href="#16" y="10.855"/></svg><svg x="3689"><use xlink:href="#a"/><use xlink:href="#b" x="-.004" y="13.001"/><use xlink:href="#11"/><use xlink:href="#12" y="2.171"/><use xlink:href="#13" y="4.342"/><use xlink:href="#14" y="6.513"/><use xlink:href="#15" y="8.684"/><use xlink:href="#16" y="10.855"/></svg><svg x="3808"><use xlink:href="#a"/><use xlink:href="#b" x="24.996" y="13.001"/><use xlink:href="#11"/><use xlink:href="#12" y="2.171"/><use xlink:href="#13" y="4.342"/><use xlink:href="#14" y="6.513"/><use xlink:href="#15" y="8.684"/><use xlink:href="#16" y="10.855"/><use xlink:href="#17" y="13.026"/></svg><svg x="3927"><use xlink:href="#a"/><use xlink:href="#b" x="-.004" y="15.172"/><use xlink:href="#11"/><use xlink:href="#12" y="2.171"/><use xlink:href="#13" y="4.342"/><use xlink:href="#14" y="6.513"/><use xlink:href="#15" y="8.684"/><use xlink:href="#16" y="10.855"/><use xlink:href="#17" y="13.026"/></svg><svg x="4046"><use xlink:href="#a"/><use xlink:href="#b" x="40.996" y="15.172"/><use xlink:href="#11"/><use xlink:href="#12" y="2.171"/><use xlink:href="#13" y="4.342"/><use xlink:href="#14" y="6.513"/><use xlink:href="#15" y="8.684"/><use xlink:href="#16" y="10.855"/><use xlink:href="#17" y="13.026"/><use xlink:href="#1" y="15.197"/></svg><svg x="4165"><use xlink:href="#a"/><use xlink:href="#b" x="41.996" y="15.172"/><use xlink:href="#11"/><use xlink:href="#12" y="2.171"/><use xlink:href="#13" y="4.342"/><use xlink:href="#14" y="6.513"/><use xlink:href="#15" y="8.684"/><use xlink:href="#16" y="10.855"/><use xlink:href="#17" y="13.026"/><use xlink:href="#2" y="15.197"/></svg><svg x="4284"><use xlink:href="#a"/><use xlink:href="#b" x="42.996" y="15.172"/><use xlink:href="#11"/><use xlink:href="#12" y="2.171"/><use xlink:href="#13" y="4.342"/><use xlink:href="#14" y="6.513"/><use xlink:href="#15" y="8.684"/><use xlink:href="#16" y="10.855"/><use xlink:href="#17" y="13.026"/><use xlink:href="#3" y="15.197"/></svg><svg x="4403"><use xlink:href="#a"/><use xlink:href="#b" x="43.996" y="15.172"/><use xlink:href="#11"/><use xlink:href="#12" y="2.171"/><use xlink:href="#13" y="4.342"/><use xlink:href="#14" y="6.513"/><use xlink:href="#15" y="8.684"/><use xlink:href="#16" y="10.855"/><use xlink:href="#17" y="13.026"/><use xlink:href="#4" y="15.197"/></svg><svg x="4522"><use xlink:href="#a"/><use xlink:href="#b" x="44.996" y="15.172"/><use xlink:href="#11"/><use xlink:href="#12" y="2.171"/><use xlink:href="#13" y="4.342"/><use xlink:href="#14" y="6.513"/><use xlink:href="#15" y="8.684"/><use xlink:href="#16" y="10.855"/><use xlink:href="#17" y="13.026"/><use xlink:href="#5" y="15.197"/></svg><svg x="4641"><use xlink:href="#a"/><use xlink:href="#b" x="45.996" y="15.172"/><use xlink:href="#11"/><use xlink:href="#12" y="2.171"/><use xlink:href="#13" y="4.342"/><use xlink:href="#14" y="6.513"/><use xlink:href="#15" y="8.684"/><use xlink:href="#16" y="10.855"/><use xlink:href="#17" y="13.026"/><use xlink:href="#6" y="15.197"/></svg><svg x="4760"><use xlink:href="#a"/><use xlink:href="#b" x="-.004"/></svg><svg x="4879"><use xlink:href="#a"/><use xlink:href="#b" x="40.996"/><use xlink:href="#1"/></svg><svg x="4998"><use xlink:href="#a"/><use xlink:href="#b" x="41.996"/><use xlink:href="#7"/></svg><svg x="5117"><use xlink:href="#a"/><use xlink:href="#b" x="42.996"/><use xlink:href="#8"/></svg><svg x="5236"><use xlink:href="#a"/><use xlink:href="#b" x="43.996"/><use xlink:href="#9"/></svg><svg x="5355"><use xlink:href="#a"/><use xlink:href="#b" x="44.996"/><use xlink:href="#10"/></svg><svg x="5474"><use xlink:href="#a"/><use xlink:href="#b" x="45.996"/><use xlink:href="#10"/></svg><svg x="5593"><use xlink:href="#a"/><use xlink:href="#b" x="46.996"/><use xlink:href="#18"/></svg><svg x="5712"><use xlink:href="#a"/><use xlink:href="#b" x="47.996"/><use xlink:href="#19"/></svg><svg x="5831"><use xlink:href="#a"/><use xlink:href="#b" x="48.996"/><use xlink:href="#20"/></svg><svg x="5950"><use xlink:href="#a"/><use xlink:href="#b" x="49.996"/><use xlink:href="#21"/></svg><svg x="6069"><use xlink:href="#a"/><use xlink:href="#b" x="50.996"/><use xlink:href="#22"/></svg><svg x="6188"><use xlink:href="#a"/><use xlink:href="#b" x="51.996"/><use xlink:href="#23"/></svg><svg x="6307"><use xlink:href="#a"/><use xlink:href="#b" x="52.996"/><use xlink:href="#24"/></svg><svg x="6426"><use xlink:href="#a"/><use xlink:href="#b" x="56.996"/><use xlink:href="#25"/></svg><svg x="6545"><use xlink:href="#a"/><use xlink:href="#b" x="-.004" y="4.317"/><use xlink:href="#25"/><use xlink:href="#26" y="2.171"/></svg><svg x="6664"><use xlink:href="#a"/><use xlink:href="#b" x="-.004" y="6.488"/><use xlink:href="#25"/><use xlink:href="#26" y="2.171"/></svg><svg x="6783"><use xlink:href="#a"/><use xlink:href="#b" x="26.996" y="6.488"/><use xlink:href="#25"/><use xlink:href="#26" y="2.171"/><use xlink:href="#27" y="6.513"/></svg><svg x="6902"><use xlink:href="#a"/><use xlink:href="#b" x="-.004" y="8.659"/><use xlink:href="#25"/><use xlink:href="#26" y="2.171"/><use xlink:href="#27" y="6.513"/></svg><svg x="7021"><use xlink:href="#a"/><use xlink:href="#b" x="22.996" y="8.659"/><use xlink:href="#25"/><use xlink:href="#26" y="2.171"/><use xlink:href="#27" y="6.513"/><use xlink:href="#28" y="8.684"/></svg><svg x="7140"><use xlink:href="#a"/><use xlink:href="#b" x="23.996" y="8.659"/><use xlink:href="#25"/><use xlink:href="#26" y="2.171"/><use xlink:href="#27" y="6.513"/><use xlink:href="#29" y="8.684"/></svg><svg x="7259"><use xlink:href="#a"/><use xlink:href="#b" x="24.996" y="8.659"/><use xlink:href="#25"/><use xlink:href="#26" y="2.171"/><use xlink:href="#27" y="6.513"/><use xlink:href="#30" y="8.684"/></svg><svg x="7378"><use xlink:href="#a"/><use xlink:href="#b" x="25.996" y="8.659"/><use xlink:href="#25"/><use xlink:href="#26" y="2.171"/><use xlink:href="#27" y="6.513"/><use xlink:href="#31" y="8.684"/></svg><svg x="7497"><use xlink:href="#a"/><use xlink:href="#b" x="12.996" y="17.343"/><use xlink:href="#25"/><use xlink:href="#26" y="2.171"/><use xlink:href="#27" y="6.513"/><use xlink:href="#31" y="8.684"/><use xlink:href="#32" y="10.855"/><use xlink:href="#33" y="13.026"/><use xlink:href="#34" y="15.197"/><use xlink:href="#35" y="17.368"/></svg><svg x="7616"><use xlink:href="#a"/><use xlink:href="#b" x="13.996" y="17.343"/><use xlink:href="#25"/><use xlink:href="#26" y="2.171"/><use xlink:href="#27" y="6.513"/><use xlink:href="#31" y="8.684"/><use xlink:href="#32" y="10.855"/><use xlink:href="#33" y="13.026"/><use xlink:href="#34" y="15.197"/><use xlink:href="#36" y="17.368"/></svg><svg x="7735"><use xlink:href="#a"/><use xlink:href="#b" x="14.996" y="17.343"/><use xlink:href="#25"/><use xlink:href="#26" y="2.171"/><use xlink:href="#27" y="6.513"/><use xlink:href="#31" y="8.684"/><use xlink:href="#32" y="10.855"/><use xlink:href="#33" y="13.026"/><use xlink:href="#34" y="15.197"/><use xlink:href="#37" y="17.368"/></svg><svg x="7854"><use xlink:href="#a"/><use xlink:href="#b" x="-.004" y="23.856"/><use xlink:href="#25"/><use xlink:href="#26" y="2.171"/><use xlink:href="#27" y="6.513"/><use xlink:href="#31" y="8.684"/><use xlink:href="#32" y="10.855"/><use xlink:href="#33" y="13.026"/><use xlink:href="#34" y="15.197"/><use xlink:href="#37" y="17.368"/><use xlink:href="#38" y="19.539"/><use xlink:href="#39" y="21.71"/></svg><svg x="7973"><use xlink:href="#a"/><use xlink:href="#b" x="40.996" y="23.856"/><use xlink:href="#25"/><use xlink:href="#26" y="2.171"/><use xlink:href="#27" y="6.513"/><use xlink:href="#31" y="8.684"/><use xlink:href="#32" y="10.855"/><use xlink:href="#33" y="13.026"/><use xlink:href="#34" y="15.197"/><use xlink:href="#37" y="17.368"/><use xlink:href="#38" y="19.539"/><use xlink:href="#39" y="21.71"/><use xlink:href="#1" y="23.881"/></svg><svg x="8092"><use xlink:href="#a"/><use xlink:href="#b" x="41.996" y="23.856"/><use xlink:href="#25"/><use xlink:href="#26" y="2.171"/><use xlink:href="#27" y="6.513"/><use xlink:href="#31" y="8.684"/><use xlink:href="#32" y="10.855"/><use xlink:href="#33" y="13.026"/><use xlink:href="#34" y="15.197"/><use xlink:href="#37" y="17.368"/><use xlink:href="#38" y="19.539"/><use xlink:href="#39" y="21.71"/><use xlink:href="#2" y="23.881"/></svg><svg x="8211"><use xlink:href="#a"/><use xlink:href="#b" x="42.996" y="23.856"/><use xlink:href="#25"/><use xlink:href="#26" y="2.171"/><use xlink:href="#27" y="6.513"/><use xlink:href="#31" y="8.684"/><use xlink:href="#32" y="10.855"/><use xlink:href="#33" y="13.026"/><use xlink:href="#34" y="15.197"/><use xlink:href="#37" y="17.368"/><use xlink:href="#38" y="19.539"/><use xlink:href="#39" y="21.71"/><use xlink:href="#3" y="23.881"/></svg><svg x="8330"><use xlink:href="#a"/><use xlink:href="#b" x="43.996" y="23.856"/><use xlink:href="#25"/><use xlink:href="#26" y="2.171"/><use xlink:href="#27" y="6.513"/><use xlink:href="#31" y="8.684"/><use xlink:href="#32" y="10.855"/><use xlink:href="#33" y="13.026"/><use xlink:href="#34" y="15.197"/><use xlink:href="#37" y="17.368"/><use xlink:href="#38" y="19.539"/><use xlink:href="#39" y="21.71"/><use xlink:href="#4" y="23.881"/></svg><svg x="8449"><use xlink:href="#a"/><use xlink:href="#b" x="44.996" y="23.856"/><use xlink:href="#25"/><use xlink:href="#26" y="2.171"/><use xlink:href="#27" y="6.513"/><use xlink:href="#31" y="8.684"/><use xlink:href="#32" y="10.855"/><use xlink:href="#33" y="13.026"/><use xlink:href="#34" y="15.197"/><use xlink:href="#37" y="17.368"/><use xlink:href="#38" y="19.539"/><use xlink:href="#39" y="21.71"/><use xlink:href="#5" y="23.881"/></svg><svg x="8568"><use xlink:href="#a"/><use xlink:href="#b" x="45.996" y="23.856"/><use xlink:href="#25"/><use xlink:href="#26" y="2.171"/><use xlink:href="#27" y="6.513"/><use xlink:href="#31" y="8.684"/><use xlink:href="#32" y="10.855"/><use xlink:href="#33" y="13.026"/><use xlink:href="#34" y="15.197"/><use xlink:href="#37" y="17.368"/><use xlink:href="#38" y="19.539"/><use xlink:href="#39" y="21.71"/><use xlink:href="#6" y="23.881"/></svg><svg x="8687"><use xlink:href="#a"/><use xlink:href="#b" x="-.004"/></svg><svg x="8806"><use xlink:href="#a"/><use xlink:href="#b" x="40.996"/><use xlink:href="#1"/></svg><svg x="8925"><use xlink:href="#a"/><use xlink:href="#b" x="41.996"/><use xlink:href="#7"/></svg><svg x="9044"><use xlink:href="#a"/><use xlink:href="#b" x="42.996"/><use xlink:href="#8"/></svg><svg x="9163"><use xlink:href="#a"/><use xlink:href="#b" x="43.996"/><use xlink:href="#9"/></svg><svg x="9282"><use xlink:href="#a"/><use xlink:href="#b" x="44.996"/><use xlink:href="#10"/></svg><svg x="9401"><use xlink:href="#a"/><use xlink:href="#b" x="45.996"/><use xlink:href="#10"/></svg><svg x="9520"><use xlink:href="#a"/><use xlink:href="#b" x="46.996"/><use xlink:href="#18"/></svg><svg x="9639"><use xlink:href="#a"/><use xlink:href="#b" x="47.996"/><use xlink:href="#19"/></svg><svg x="9758"><use xlink:href="#a"/><use xlink:href="#b" x="48.996"/><use xlink:href="#20"/></svg><svg x="9877"><use xlink:href="#a"/><use xlink:href="#b" x="49.996"/><use xlink:href="#21"/></svg><svg x="9996"><use xlink:href="#a"/><use xlink:href="#b" x="50.996"/><use xlink:href="#22"/></svg><svg x="10115"><use xlink:href="#a"/><use xlink:href="#b" x="51.996"/><use xlink:href="#23"/></svg><svg x="10234"><use xlink:href="#a"/><use xlink:href="#b" x="52.996"/><use xlink:href="#24"/></svg><svg x="10353"><use xlink:href="#a"/><use xlink:href="#b" x="56.996"/><use xlink:href="#25"/></svg><svg x="10472"><use xlink:href="#a"/><use xlink:href="#b" x="-.004" y="4.317"/><use xlink:href="#25"/><use xlink:href="#26" y="2.171"/></svg><svg x="10591"><use xlink:href="#a"/><use xlink:href="#b" x="-.004" y="6.488"/><use xlink:href="#25"/><use xlink:href="#26" y="2.171"/></svg><svg x="10710"><use xlink:href="#a"/><use xlink:href="#b" x="26.996" y="6.488"/><use xlink:href="#25"/><use xlink:href="#26" y="2.171"/><use xlink:href="#27" y="6.513"/></svg><svg x="10829"><use xlink:href="#a"/><use xlink:href="#b" x="-.004" y="8.659"/><use xlink:href="#25"/><use xlink:href="#26" y="2.171"/><use xlink:href="#27" y="6.513"/></svg><svg x="10948"><use xlink:href="#a"/><use xlink:href="#b" x="22.996" y="8.659"/><use xlink:href="#25"/><use xlink:href="#26" y="2.171"/><use xlink:href="#27" y="6.513"/><use xlink:href="#28" y="8.684"/></svg><svg x="11067"><use xlink:href="#a"/><use xlink:href="#b" x="23.996" y="8.659"/><use xlink:href="#25"/><use xlink:href="#26" y="2.171"/><use xlink:href="#27" y="6.513"/><use xlink:href="#29" y="8.684"/></svg><svg x="11186"><use xlink:href="#a"/><use xlink:href="#b" x="24.996" y="8.659"/><use xlink:href="#25"/><use xlink:href="#26" y="2.171"/><use xlink:href="#27" y="6.513"/><use xlink:href="#30" y="8.684"/></svg><svg x="11305"><use xlink:href="#a"/><use xlink:href="#b" x="25.996" y="8.659"/><use xlink:href="#25"/><use xlink:href="#26" y="2.171"/><use xlink:href="#27" y="6.513"/><use xlink:href="#31" y="8.684"/></svg><svg x="11424"><use xlink:href="#a"/><use xlink:href="#b" x="12.996" y="17.343"/><use xlink:href="#25"/><use xlink:href="#26" y="2.171"/><use xlink:href="#27" y="6.513"/><use xlink:href="#31" y="8.684"/><use xlink:href="#32" y="10.855"/><use xlink:href="#33" y="13.026"/><use xlink:href="#40" y="15.197"/><use xlink:href="#35" y="17.368"/></svg><svg x="11543"><use xlink:href="#a"/><use xlink:href="#b" x="13.996" y="17.343"/><use xlink:href="#25"/><use xlink:href="#26" y="2.171"/><use xlink:href="#27" y="6.513"/><use xlink:href="#31" y="8.684"/><use xlink:href="#32" y="10.855"/><use xlink:href="#33" y="13.026"/><use xlink:href="#40" y="15.197"/><use xlink:href="#36" y="17.368"/></svg><svg x="11662"><use xlink:href="#a"/><use xlink:href="#b" x="14.996" y="17.343"/><use xlink:href="#25"/><use xlink:href="#26" y="2.171"/><use xlink:href="#27" y="6.513"/><use xlink:href="#31" y="8.684"/><use xlink:href="#32" y="10.855"/><use xlink:href="#33" y="13.026"/><use xlink:href="#40" y="15.197"/><use xlink:href="#37" y="17.368"/></svg><svg x="11781"><use xlink:href="#a"/><use xlink:href="#b" x="12.996" y="23.856"/><use xlink:href="#25"/><use xlink:href="#26" y="2.171"/><use xlink:href="#27" y="6.513"/><use xlink:href="#31" y="8.684"/><use xlink:href="#32" y="10.855"/><use xlink:href="#33" y="13.026"/><use xlink:href="#40" y="15.197"/><use xlink:href="#37" y="17.368"/><use xlink:href="#41" y="19.539"/><use xlink:href="#42" y="21.71"/><use xlink:href="#35" y="23.881"/></svg><svg x="11900"><use xlink:href="#a"/><use xlink:href="#b" x="13.996" y="23.856"/><use xlink:href="#25"/><use xlink:href="#26" y="2.171"/><use xlink:href="#27" y="6.513"/><use xlink:href="#31" y="8.684"/><use xlink:href="#32" y="10.855"/><use xlink:href="#33" y="13.026"/><use xlink:href="#40" y="15.197"/><use xlink:href="#37" y="17.368"/><use xlink:href="#41" y="19.539"/><use xlink:href="#42" y="21.71"/><text y="25.551" class="g">Your</text><text x="5.01" y="25.551" class="g">answer:</text><text x="13.026" y="25.551" class="g">y</text></svg><svg x="12019"><use xlink:href="#a"/><use xlink:href="#b" x="14.996" y="23.856"/><use xlink:href="#25"/><use xlink:href="#26" y="2.171"/><use xlink:href="#27" y="6.513"/><use xlink:href="#31" y="8.684"/><use xlink:href="#32" y="10.855"/><use xlink:href="#33" y="13.026"/><use xlink:href="#40" y="15.197"/><use xlink:href="#37" y="17.368"/><use xlink:href="#41" y="19.539"/><use xlink:href="#42" y="21.71"/><text y="25.551" class="g">Your</text><text x="5.01" y="25.551" class="g">answer:</text><text x="13.026" y="25.551" class="g">ye</text></svg><svg x="12138"><use xlink:href="#a"/><use xlink:href="#b" x="15.996" y="23.856"/><use xlink:href="#25"/><use xlink:href="#26" y="2.171"/><use xlink:href="#27" y="6.513"/><use xlink:href="#31" y="8.684"/><use xlink:href="#32" y="10.855"/><use xlink:href="#33" y="13.026"/><use xlink:href="#40" y="15.197"/><use xlink:href="#37" y="17.368"/><use xlink:href="#41" y="19.539"/><use xlink:href="#42" y="21.71"/><use xlink:href="#43" y="23.881"/></svg><svg x="12257"><use xlink:href="#a"/><use xlink:href="#b" x="12.996" y="30.369"/><use xlink:href="#25"/><use xlink:href="#26" y="2.171"/><use xlink:href="#27" y="6.513"/><use xlink:href="#31" y="8.684"/><use xlink:href="#32" y="10.855"/><use xlink:href="#33" y="13.026"/><use xlink:href="#40" y="15.197"/><use xlink:href="#37" y="17.368"/><use xlink:href="#41" y="19.539"/><use xlink:href="#42" y="21.71"/><use xlink:href="#43" y="23.881"/><use xlink:href="#41" y="26.052"/><use xlink:href="#44" y="28.223"/><use xlink:href="#35" y="30.394"/></svg><svg x="12376"><use xlink:href="#a"/><use xlink:href="#b" x="13.996" y="30.369"/><use xlink:href="#25"/><use xlink:href="#26" y="2.171"/><use xlink:href="#27" y="6.513"/><use xlink:href="#31" y="8.684"/><use xlink:href="#32" y="10.855"/><use xlink:href="#33" y="13.026"/><use xlink:href="#40" y="15.197"/><use xlink:href="#37" y="17.368"/><use xlink:href="#41" y="19.539"/><use xlink:href="#42" y="21.71"/><use xlink:href="#43" y="23.881"/><use xlink:href="#41" y="26.052"/><use xlink:href="#44" y="28.223"/><use xlink:href="#36" y="30.394"/></svg><svg x="12495"><use xlink:href="#a"/><use xlink:href="#b" x="14.996" y="30.369"/><use xlink:href="#25"/><use xlink:href="#26" y="2.171"/><use xlink:href="#27" y="6.513"/><use xlink:href="#31" y="8.684"/><use xlink:href="#32" y="10.855"/><use xlink:href="#33" y="13.026"/><use xlink:href="#40" y="15.197"/><use xlink:href="#37" y="17.368"/><use xlink:href="#41" y="19.539"/><use xlink:href="#42" y="21.71"/><use xlink:href="#43" y="23.881"/><use xlink:href="#41" y="26.052"/><use xlink:href="#44" y="28.223"/><use xlink:href="#37" y="30.394"/></svg><svg x="12614"><use xlink:href="#a"/><use xlink:href="#b" x="-.004" y="36.882"/><use xlink:href="#25"/><use xlink:href="#26" y="2.171"/><use xlink:href="#27" y="6.513"/><use xlink:href="#31" y="8.684"/><use xlink:href="#32" y="10.855"/><use xlink:href="#33" y="13.026"/><use xlink:href="#40" y="15.197"/><use xlink:href="#37" y="17.368"/><use xlink:href="#41" y="19.539"/><use xlink:href="#42" y="21.71"/><use xlink:href="#43" y="23.881"/><use xlink:href="#41" y="26.052"/><use xlink:href="#44" y="28.223"/><use xlink:href="#37" y="30.394"/><use xlink:href="#41" y="32.565"/><use xlink:href="#45" y="34.736"/></svg><svg x="12733"><use xlink:href="#a"/><use xlink:href="#b" x="40.996" y="36.882"/><use xlink:href="#25"/><use xlink:href="#26" y="2.171"/><use xlink:href="#27" y="6.513"/><use xlink:href="#31" y="8.684"/><use xlink:href="#32" y="10.855"/><use xlink:href="#33" y="13.026"/><use xlink:href="#40" y="15.197"/><use xlink:href="#37" y="17.368"/><use xlink:href="#41" y="19.539"/><use xlink:href="#42" y="21.71"/><use xlink:href="#43" y="23.881"/><use xlink:href="#41" y="26.052"/><use xlink:href="#44" y="28.223"/><use xlink:href="#37" y="30.394"/><use xlink:href="#41" y="32.565"/><use xlink:href="#45" y="34.736"/><use xlink:href="#1" y="36.907"/></svg><svg x="12852"><use xlink:href="#a"/><use xlink:href="#b" x="-.004" y="39.053"/><use xlink:href="#25"/><use xlink:href="#26" y="2.171"/><use xlink:href="#27" y="6.513"/><use xlink:href="#31" y="8.684"/><use xlink:href="#32" y="10.855"/><use xlink:href="#33" y="13.026"/><use xlink:href="#40" y="15.197"/><use xlink:href="#37" y="17.368"/><use xlink:href="#41" y="19.539"/><use xlink:href="#42" y="21.71"/><use xlink:href="#43" y="23.881"/><use xlink:href="#41" y="26.052"/><use xlink:href="#44" y="28.223"/><use xlink:href="#37" y="30.394"/><use xlink:href="#41" y="32.565"/><use xlink:href="#45" y="34.736"/><text y="38.577" class="f">aktm@aktm-VirtualBox</text><text x="20.04" y="38.577" class="g">:</text><text x="21.042" y="38.577" class="h">~/php-project-lvl1</text><text x="39.078" y="38.577" class="g">$</text><text x="41.082" y="38.577" class="g">exit</text></svg></svg></g></g></svg></svg>