<svg xmlns="http://www.w3.org/2000/svg" xmlns:xlink="http://www.w3.org/1999/xlink" width="770" height="515.91"><rect width="770" height="515.91" rx="5" ry="5" class="a"/><svg y="0%" x="0%"><circle cx="20" cy="20" r="6" fill="#ff5f58"/><circle cx="40" cy="20" r="6" fill="#ffbd2e"/><circle cx="60" cy="20" r="6" fill="#18c132"/></svg><svg height="455.91" viewBox="0 0 73 45.591" width="730" x="15" xmlns="http://www.w3.org/2000/svg" xmlns:xlink="http://www.w3.org/1999/xlink" y="50"><style>@keyframes k{0%{transform:translateX(0)}.19%{transform:translateX(-73px)}3.7%{transform:translateX(-146px)}4.33%{transform:translateX(-219px)}5.08%{transform:translateX(-292px)}5.87%{transform:translateX(-365px)}6.55%{transform:translateX(-438px)}8.05%{transform:translateX(-511px)}9.19%{transform:translateX(-584px)}9.7%{transform:translateX(-657px)}11.26%{transform:translateX(-730px)}12.3%{transform:translateX(-803px)}15.81%{transform:translateX(-876px)}17.41%{transform:translateX(-949px)}18.01%{transform:translateX(-1022px)}19.56%{transform:translateX(-1095px)}20.37%{transform:translateX(-1168px)}23.88%{transform:translateX(-1241px)}23.89%{transform:translateX(-1314px)}24.49%{transform:translateX(-1387px)}24.57%{transform:translateX(-1460px)}24.59%{transform:translateX(-1606px)}28.1%{transform:translateX(-1679px)}29.88%{transform:translateX(-1752px)}30.42%{transform:translateX(-1825px)}33.93%{transform:translateX(-1971px)}37.44%{transform:translateX(-2044px)}37.88%{transform:translateX(-2117px)}41.39%{transform:translateX(-2190px)}41.4%{transform:translateX(-2263px)}44.9%{transform:translateX(-2336px)}46.31%{transform:translateX(-2409px)}49.82%{transform:translateX(-2482px)}53.33%{transform:translateX(-2555px)}54.18%{transform:translateX(-2628px)}57.69%{transform:translateX(-2701px)}57.72%{transform:translateX(-2774px)}61.23%{transform:translateX(-2847px)}64.54%{transform:translateX(-2920px)}65.13%{transform:translateX(-2993px)}65.94%{transform:translateX(-3066px)}66.37%{transform:translateX(-3139px)}69.41%{transform:translateX(-3358px)}72.92%{transform:translateX(-3431px)}75.48%{transform:translateX(-3504px)}78.98%{transform:translateX(-3577px)}79.63%{transform:translateX(-3723px)}79.74%{transform:translateX(-3796px)}79.76%{transform:translateX(-4015px)}83.27%{transform:translateX(-4088px)}84.82%{transform:translateX(-4161px)}85.53%{transform:translateX(-4234px)}88.86%{transform:translateX(-4307px)}88.87%{transform:translateX(-4380px)}92.38%{transform:translateX(-4453px)}92.94%{transform:translateX(-4526px)}96.45%{transform:translateX(-4599px)}96.46%{transform:translateX(-4672px)}96.49%{transform:translateX(-4745px)}to{transform:translateX(-4818px)}}.a{fill:#282d35}.f,.g,.h{white-space:pre}.f{fill:#a8cc8c;font-weight:700}.g,.h{fill:#b9c0cb}.h{fill:#71bef2;font-weight:700}</style><g font-family="Monaco,Consolas,Menlo,'Bitstream Vera Sans Mono','Powerline Symbols',monospace" font-size="1.67"><defs><symbol id="15"><text y="1.67" class="g">Your</text><text x="5.01" y="1.67" class="g">answer:</text><text x="13.026" y="1.67" class="g">10</text></symbol><symbol id="1"><text y="1.67" class="f">aktm@aktm-VirtualBox</text><text x="20.04" y="1.67" class="g">:</text><text x="21.042" y="1.67" class="h">~/php-project-lvl1</text><text x="39.078" y="1.67" class="g">$</text></symbol><symbol id="3"><text y="1.67" class="f">aktm@aktm-VirtualBox</text><text x="20.04" y="1.67" class="g">:</text><text x="21.042" y="1.67" class="h">~/php-project-lvl1</text><text x="39.078" y="1.67" class="g">$</text><text x="41.082" y="1.67" class="g">make</text><text x="46.092" y="1.67" class="g">brain-calc</text></symbol><symbol id="4"><text y="1.67" class="g">composer</text><text x="9.018" y="1.67" class="g">run-script</text><text x="20.04" y="1.67" class="g">brain-calc</text></symbol><symbol id="5"><text y="1.67" class="g">&gt;</text><text x="2.004" y="1.67" class="g">brain-calc</text></symbol><symbol id="6"><text y="1.67" class="g">Welcome</text><text x="8.016" y="1.67" class="g">to</text><text x="11.022" y="1.67" class="g">the</text><text x="15.03" y="1.67" class="g">Brain</text><text x="21.042" y="1.67" class="g">games!</text></symbol><symbol id="7"><text y="1.67" class="g">May</text><text x="4.008" y="1.67" class="g">I</text><text x="6.012" y="1.67" class="g">have</text><text x="11.022" y="1.67" class="g">your</text><text x="16.032" y="1.67" class="g">name?:</text></symbol><symbol id="8"><text y="1.67" class="g">May</text><text x="4.008" y="1.67" class="g">I</text><text x="6.012" y="1.67" class="g">have</text><text x="11.022" y="1.67" class="g">your</text><text x="16.032" y="1.67" class="g">name?:</text><text x="23.046" y="1.67" class="g">N</text></symbol><symbol id="9"><text y="1.67" class="g">May</text><text x="4.008" y="1.67" class="g">I</text><text x="6.012" y="1.67" class="g">have</text><text x="11.022" y="1.67" class="g">your</text><text x="16.032" y="1.67" class="g">name?:</text><text x="23.046" y="1.67" class="g">Ne</text></symbol><symbol id="10"><text y="1.67" class="g">May</text><text x="4.008" y="1.67" class="g">I</text><text x="6.012" y="1.67" class="g">have</text><text x="11.022" y="1.67" class="g">your</text><text x="16.032" y="1.67" class="g">name?:</text><text x="23.046" y="1.67" class="g">Neo</text></symbol><symbol id="11"><text y="1.67" class="g">Hello,</text><text x="7.014" y="1.67" class="g">Neo</text></symbol><symbol id="12"><text y="1.67" class="g">What</text><text x="5.01" y="1.67" class="g">is</text><text x="8.016" y="1.67" class="g">the</text><text x="12.024" y="1.67" class="g">result</text><text x="19.038" y="1.67" class="g">of</text><text x="22.044" y="1.67" class="g">the</text><text x="26.052" y="1.67" class="g">expression?</text></symbol><symbol id="13"><text y="1.67" class="g">Question:</text><text x="10.02" y="1.67" class="g">5</text><text x="12.024" y="1.67" class="g">*</text><text x="14.028" y="1.67" class="g">2</text></symbol><symbol id="14"><text y="1.67" class="g">Your</text><text x="5.01" y="1.67" class="g">answer:</text></symbol><symbol id="2"><text y="1.67" class="f">aktm@aktm-VirtualBox</text><text x="20.04" y="1.67" class="g">:</text><text x="21.042" y="1.67" class="h">~/php-project-lvl1</text><text x="39.078" y="1.67" class="g">$</text><text x="41.082" y="1.67" class="g">make</text></symbol><symbol id="16"><text y="1.67" class="g">Correct!</text></symbol><symbol id="17"><text y="1.67" class="g">Question:</text><text x="10.02" y="1.67" class="g">20</text><text x="13.026" y="1.67" class="g">*</text><text x="15.03" y="1.67" class="g">4</text></symbol><symbol id="18"><text y="1.67" class="g">Your</text><text x="5.01" y="1.67" class="g">answer:</text><text x="13.026" y="1.67" class="g">8</text></symbol><symbol id="19"><text y="1.67" class="g">Your</text><text x="5.01" y="1.67" class="g">answer:</text><text x="13.026" y="1.67" class="g">80</text></symbol><symbol id="20"><text y="1.67" class="g">Question:</text><text x="10.02" y="1.67" class="g">10</text><text x="13.026" y="1.67" class="g">*</text><text x="15.03" y="1.67" class="g">3</text></symbol><symbol id="21"><text y="1.67" class="g">Your</text><text x="5.01" y="1.67" class="g">answer:</text><text x="13.026" y="1.67" class="g">30</text></symbol><symbol id="22"><text y="1.67" class="g">Congratulations,</text><text x="17.034" y="1.67" class="g">Neo!</text></symbol><symbol id="23"><text y="1.67" class="f">aktm@aktm-VirtualBox</text><text x="20.04" y="1.67" class="g">:</text><text x="21.042" y="1.67" class="h">~/php-project-lvl1</text><text x="39.078" y="1.67" class="g">$</text><text x="41.082" y="1.67" class="g">clear</text></symbol><symbol id="24"><text y="1.67" class="g">Question:</text><text x="10.02" y="1.67" class="g">8</text><text x="12.024" y="1.67" class="g">*</text><text x="14.028" y="1.67" class="g">1</text></symbol><symbol id="25"><text y="1.67" class="g">Your</text><text x="5.01" y="1.67" class="g">answer:</text><text x="13.026" y="1.67" class="g">81</text></symbol><symbol id="26"><text y="1.67" class="g">&apos;81&apos;</text><text x="5.01" y="1.67" class="g">is</text><text x="8.016" y="1.67" class="g">wrong</text><text x="14.028" y="1.67" class="g">answer</text><text x="21.042" y="1.67" class="g">;(.</text><text x="25.05" y="1.67" class="g">Correct</text><text x="33.066" y="1.67" class="g">answer</text><text x="40.08" y="1.67" class="g">was</text><text x="44.088" y="1.67" class="g">&apos;8&apos;.</text></symbol><symbol id="27"><text y="1.67" class="g">Let&apos;s</text><text x="6.012" y="1.67" class="g">try</text><text x="10.02" y="1.67" class="g">again,</text><text x="17.034" y="1.67" class="g">Neo!</text></symbol><symbol id="a"><path fill="transparent" d="M0 0h73v21H0z"/></symbol><symbol id="b"><path fill="#6f7683" d="M0 0h1.102v2.171H0z"/></symbol></defs><path class="a" d="M0 0h73v45.591H0z"/><g style="animation-duration:22.806162000000015s;animation-iteration-count:infinite;animation-name:k;animation-timing-function:steps(1,end)"><svg width="4891"><svg><use xlink:href="#a"/><use xlink:href="#b" x="-.004"/></svg><svg x="73"><use xlink:href="#a"/><use xlink:href="#b" x="40.996"/><use xlink:href="#1"/></svg><svg x="146"><use xlink:href="#a"/><use xlink:href="#b" x="41.996"/><text y="1.67" class="f">aktm@aktm-VirtualBox</text><text x="20.04" y="1.67" class="g">:</text><text x="21.042" y="1.67" class="h">~/php-project-lvl1</text><text x="39.078" y="1.67" class="g">$</text><text x="41.082" y="1.67" class="g">m</text></svg><svg x="219"><use xlink:href="#a"/><use xlink:href="#b" x="42.996"/><text y="1.67" class="f">aktm@aktm-VirtualBox</text><text x="20.04" y="1.67" class="g">:</text><text x="21.042" y="1.67" class="h">~/php-project-lvl1</text><text x="39.078" y="1.67" class="g">$</text><text x="41.082" y="1.67" class="g">ma</text></svg><svg x="292"><use xlink:href="#a"/><use xlink:href="#b" x="43.996"/><text y="1.67" class="f">aktm@aktm-VirtualBox</text><text x="20.04" y="1.67" class="g">:</text><text x="21.042" y="1.67" class="h">~/php-project-lvl1</text><text x="39.078" y="1.67" class="g">$</text><text x="41.082" y="1.67" class="g">mak</text></svg><svg x="365"><use xlink:href="#a"/><use xlink:href="#b" x="44.996"/><use xlink:href="#2"/></svg><svg x="438"><use xlink:href="#a"/><use xlink:href="#b" x="45.996"/><use xlink:href="#2"/></svg><svg x="511"><use xlink:href="#a"/><use xlink:href="#b" x="46.996"/><text y="1.67" class="f">aktm@aktm-VirtualBox</text><text x="20.04" y="1.67" class="g">:</text><text x="21.042" y="1.67" class="h">~/php-project-lvl1</text><text x="39.078" y="1.67" class="g">$</text><text x="41.082" y="1.67" class="g">make</text><text x="46.092" y="1.67" class="g">b</text></svg><svg x="584"><use xlink:href="#a"/><use xlink:href="#b" x="47.996"/><text y="1.67" class="f">aktm@aktm-VirtualBox</text><text x="20.04" y="1.67" class="g">:</text><text x="21.042" y="1.67" class="h">~/php-project-lvl1</text><text x="39.078" y="1.67" class="g">$</text><text x="41.082" y="1.67" class="g">make</text><text x="46.092" y="1.67" class="g">br</text></svg><svg x="657"><use xlink:href="#a"/><use xlink:href="#b" x="48.996"/><text y="1.67" class="f">aktm@aktm-VirtualBox</text><text x="20.04" y="1.67" class="g">:</text><text x="21.042" y="1.67" class="h">~/php-project-lvl1</text><text x="39.078" y="1.67" class="g">$</text><text x="41.082" y="1.67" class="g">make</text><text x="46.092" y="1.67" class="g">bra</text></svg><svg x="730"><use xlink:href="#a"/><use xlink:href="#b" x="49.996"/><text y="1.67" class="f">aktm@aktm-VirtualBox</text><text x="20.04" y="1.67" class="g">:</text><text x="21.042" y="1.67" class="h">~/php-project-lvl1</text><text x="39.078" y="1.67" class="g">$</text><text x="41.082" y="1.67" class="g">make</text><text x="46.092" y="1.67" class="g">brai</text></svg><svg x="803"><use xlink:href="#a"/><use xlink:href="#b" x="50.996"/><text y="1.67" class="f">aktm@aktm-VirtualBox</text><text x="20.04" y="1.67" class="g">:</text><text x="21.042" y="1.67" class="h">~/php-project-lvl1</text><text x="39.078" y="1.67" class="g">$</text><text x="41.082" y="1.67" class="g">make</text><text x="46.092" y="1.67" class="g">brain</text></svg><svg x="876"><use xlink:href="#a"/><use xlink:href="#b" x="51.996"/><text y="1.67" class="f">aktm@aktm-VirtualBox</text><text x="20.04" y="1.67" class="g">:</text><text x="21.042" y="1.67" class="h">~/php-project-lvl1</text><text x="39.078" y="1.67" class="g">$</text><text x="41.082" y="1.67" class="g">make</text><text x="46.092" y="1.67" class="g">brain-</text></svg><svg x="949"><use xlink:href="#a"/><use xlink:href="#b" x="52.996"/><text y="1.67" class="f">aktm@aktm-VirtualBox</text><text x="20.04" y="1.67" class="g">:</text><text x="21.042" y="1.67" class="h">~/php-project-lvl1</text><text x="39.078" y="1.67" class="g">$</text><text x="41.082" y="1.67" class="g">make</text><text x="46.092" y="1.67" class="g">brain-c</text></svg><svg x="1022"><use xlink:href="#a"/><use xlink:href="#b" x="53.996"/><text y="1.67" class="f">aktm@aktm-VirtualBox</text><text x="20.04" y="1.67" class="g">:</text><text x="21.042" y="1.67" class="h">~/php-project-lvl1</text><text x="39.078" y="1.67" class="g">$</text><text x="41.082" y="1.67" class="g">make</text><text x="46.092" y="1.67" class="g">brain-ca</text></svg><svg x="1095"><use xlink:href="#a"/><use xlink:href="#b" x="54.996"/><text y="1.67" class="f">aktm@aktm-VirtualBox</text><text x="20.04" y="1.67" class="g">:</text><text x="21.042" y="1.67" class="h">~/php-project-lvl1</text><text x="39.078" y="1.67" class="g">$</text><text x="41.082" y="1.67" class="g">make</text><text x="46.092" y="1.67" class="g">brain-cal</text></svg><svg x="1168"><use xlink:href="#a"/><use xlink:href="#b" x="55.996"/><use xlink:href="#3"/></svg><svg x="1241"><use xlink:href="#a"/><use xlink:href="#b" x="-.004" y="2.146"/><use xlink:href="#3"/></svg><svg x="1314"><use xlink:href="#a"/><use xlink:href="#b" x="-.004" y="4.317"/><use xlink:href="#3"/><use xlink:href="#4" y="2.171"/></svg><svg x="1387"><use xlink:href="#a"/><use xlink:href="#b" x="-.004" y="6.488"/><use xlink:href="#3"/><use xlink:href="#4" y="2.171"/><use xlink:href="#5" y="4.342"/></svg><svg x="1460"><use xlink:href="#a"/><use xlink:href="#b" x="-.004" y="8.659"/><use xlink:href="#3"/><use xlink:href="#4" y="2.171"/><use xlink:href="#5" y="4.342"/></svg><svg x="1533"><use xlink:href="#a"/><use xlink:href="#b" x="-.004" y="10.83"/><use xlink:href="#3"/><use xlink:href="#4" y="2.171"/><use xlink:href="#5" y="4.342"/><use xlink:href="#6" y="8.684"/></svg><svg x="1606"><use xlink:href="#a"/><use xlink:href="#b" x="22.996" y="10.83"/><use xlink:href="#3"/><use xlink:href="#4" y="2.171"/><use xlink:href="#5" y="4.342"/><use xlink:href="#6" y="8.684"/><use xlink:href="#7" y="10.855"/></svg><svg x="1679"><use xlink:href="#a"/><use xlink:href="#b" x="23.996" y="10.83"/><use xlink:href="#3"/><use xlink:href="#4" y="2.171"/><use xlink:href="#5" y="4.342"/><use xlink:href="#6" y="8.684"/><use xlink:href="#8" y="10.855"/></svg><svg x="1752"><use xlink:href="#a"/><use xlink:href="#b" x="24.996" y="10.83"/><use xlink:href="#3"/><use xlink:href="#4" y="2.171"/><use xlink:href="#5" y="4.342"/><use xlink:href="#6" y="8.684"/><use xlink:href="#9" y="10.855"/></svg><svg x="1825"><use xlink:href="#a"/><use xlink:href="#b" x="25.996" y="10.83"/><use xlink:href="#3"/><use xlink:href="#4" y="2.171"/><use xlink:href="#5" y="4.342"/><use xlink:href="#6" y="8.684"/><use xlink:href="#10" y="10.855"/></svg><svg x="1898"><use xlink:href="#a"/><use xlink:href="#b" x="-.004" y="15.172"/><use xlink:href="#3"/><use xlink:href="#4" y="2.171"/><use xlink:href="#5" y="4.342"/><use xlink:href="#6" y="8.684"/><use xlink:href="#10" y="10.855"/><use xlink:href="#11" y="13.026"/></svg><svg x="1971"><use xlink:href="#a"/><use xlink:href="#b" x="12.996" y="19.514"/><use xlink:href="#3"/><use xlink:href="#4" y="2.171"/><use xlink:href="#5" y="4.342"/><use xlink:href="#6" y="8.684"/><use xlink:href="#10" y="10.855"/><use xlink:href="#11" y="13.026"/><use xlink:href="#12" y="15.197"/><use xlink:href="#13" y="17.368"/><use xlink:href="#14" y="19.539"/></svg><svg x="2044"><use xlink:href="#a"/><use xlink:href="#b" x="13.996" y="19.514"/><use xlink:href="#3"/><use xlink:href="#4" y="2.171"/><use xlink:href="#5" y="4.342"/><use xlink:href="#6" y="8.684"/><use xlink:href="#10" y="10.855"/><use xlink:href="#11" y="13.026"/><use xlink:href="#12" y="15.197"/><use xlink:href="#13" y="17.368"/><text y="21.209" class="g">Your</text><text x="5.01" y="21.209" class="g">answer:</text><text x="13.026" y="21.209" class="g">1</text></svg><svg x="2117"><use xlink:href="#a"/><use xlink:href="#b" x="14.996" y="19.514"/><use xlink:href="#3"/><use xlink:href="#4" y="2.171"/><use xlink:href="#5" y="4.342"/><use xlink:href="#6" y="8.684"/><use xlink:href="#10" y="10.855"/><use xlink:href="#11" y="13.026"/><use xlink:href="#12" y="15.197"/><use xlink:href="#13" y="17.368"/><use xlink:href="#15" y="19.539"/></svg><svg x="2190"><use xlink:href="#a"/><use xlink:href="#b" x="-.004" y="21.685"/><use xlink:href="#3"/><use xlink:href="#4" y="2.171"/><use xlink:href="#5" y="4.342"/><use xlink:href="#6" y="8.684"/><use xlink:href="#10" y="10.855"/><use xlink:href="#11" y="13.026"/><use xlink:href="#12" y="15.197"/><use xlink:href="#13" y="17.368"/><use xlink:href="#15" y="19.539"/></svg><svg x="2263"><use xlink:href="#a"/><use xlink:href="#b" x="12.996" y="26.027"/><use xlink:href="#3"/><use xlink:href="#4" y="2.171"/><use xlink:href="#5" y="4.342"/><use xlink:href="#6" y="8.684"/><use xlink:href="#10" y="10.855"/><use xlink:href="#11" y="13.026"/><use xlink:href="#12" y="15.197"/><use xlink:href="#13" y="17.368"/><use xlink:href="#15" y="19.539"/><use xlink:href="#16" y="21.71"/><use xlink:href="#17" y="23.881"/><use xlink:href="#14" y="26.052"/></svg><svg x="2336"><use xlink:href="#a"/><use xlink:href="#b" x="13.996" y="26.027"/><use xlink:href="#3"/><use xlink:href="#4" y="2.171"/><use xlink:href="#5" y="4.342"/><use xlink:href="#6" y="8.684"/><use xlink:href="#10" y="10.855"/><use xlink:href="#11" y="13.026"/><use xlink:href="#12" y="15.197"/><use xlink:href="#13" y="17.368"/><use xlink:href="#15" y="19.539"/><use xlink:href="#16" y="21.71"/><use xlink:href="#17" y="23.881"/><use xlink:href="#18" y="26.052"/></svg><svg x="2409"><use xlink:href="#a"/><use xlink:href="#b" x="14.996" y="26.027"/><use xlink:href="#3"/><use xlink:href="#4" y="2.171"/><use xlink:href="#5" y="4.342"/><use xlink:href="#6" y="8.684"/><use xlink:href="#10" y="10.855"/><use xlink:href="#11" y="13.026"/><use xlink:href="#12" y="15.197"/><use xlink:href="#13" y="17.368"/><use xlink:href="#15" y="19.539"/><use xlink:href="#16" y="21.71"/><use xlink:href="#17" y="23.881"/><use xlink:href="#19" y="26.052"/></svg><svg x="2482"><use xlink:href="#a"/><use xlink:href="#b" x="12.996" y="32.54"/><use xlink:href="#3"/><use xlink:href="#4" y="2.171"/><use xlink:href="#5" y="4.342"/><use xlink:href="#6" y="8.684"/><use xlink:href="#10" y="10.855"/><use xlink:href="#11" y="13.026"/><use xlink:href="#12" y="15.197"/><use xlink:href="#13" y="17.368"/><use xlink:href="#15" y="19.539"/><use xlink:href="#16" y="21.71"/><use xlink:href="#17" y="23.881"/><use xlink:href="#19" y="26.052"/><use xlink:href="#16" y="28.223"/><use xlink:href="#20" y="30.394"/><use xlink:href="#14" y="32.565"/></svg><svg x="2555"><use xlink:href="#a"/><use xlink:href="#b" x="13.996" y="32.54"/><use xlink:href="#3"/><use xlink:href="#4" y="2.171"/><use xlink:href="#5" y="4.342"/><use xlink:href="#6" y="8.684"/><use xlink:href="#10" y="10.855"/><use xlink:href="#11" y="13.026"/><use xlink:href="#12" y="15.197"/><use xlink:href="#13" y="17.368"/><use xlink:href="#15" y="19.539"/><use xlink:href="#16" y="21.71"/><use xlink:href="#17" y="23.881"/><use xlink:href="#19" y="26.052"/><use xlink:href="#16" y="28.223"/><use xlink:href="#20" y="30.394"/><text y="34.235" class="g">Your</text><text x="5.01" y="34.235" class="g">answer:</text><text x="13.026" y="34.235" class="g">3</text></svg><svg x="2628"><use xlink:href="#a"/><use xlink:href="#b" x="14.996" y="32.54"/><use xlink:href="#3"/><use xlink:href="#4" y="2.171"/><use xlink:href="#5" y="4.342"/><use xlink:href="#6" y="8.684"/><use xlink:href="#10" y="10.855"/><use xlink:href="#11" y="13.026"/><use xlink:href="#12" y="15.197"/><use xlink:href="#13" y="17.368"/><use xlink:href="#15" y="19.539"/><use xlink:href="#16" y="21.71"/><use xlink:href="#17" y="23.881"/><use xlink:href="#19" y="26.052"/><use xlink:href="#16" y="28.223"/><use xlink:href="#20" y="30.394"/><use xlink:href="#21" y="32.565"/></svg><svg x="2701"><use xlink:href="#a"/><use xlink:href="#b" x="-.004" y="39.053"/><use xlink:href="#3"/><use xlink:href="#4" y="2.171"/><use xlink:href="#5" y="4.342"/><use xlink:href="#6" y="8.684"/><use xlink:href="#10" y="10.855"/><use xlink:href="#11" y="13.026"/><use xlink:href="#12" y="15.197"/><use xlink:href="#13" y="17.368"/><use xlink:href="#15" y="19.539"/><use xlink:href="#16" y="21.71"/><use xlink:href="#17" y="23.881"/><use xlink:href="#19" y="26.052"/><use xlink:href="#16" y="28.223"/><use xlink:href="#20" y="30.394"/><use xlink:href="#21" y="32.565"/><use xlink:href="#16" y="34.736"/><use xlink:href="#22" y="36.907"/></svg><svg x="2774"><use xlink:href="#a"/><use xlink:href="#b" x="40.996" y="39.053"/><use xlink:href="#3"/><use xlink:href="#4" y="2.171"/><use xlink:href="#5" y="4.342"/><use xlink:href="#6" y="8.684"/><use xlink:href="#10" y="10.855"/><use xlink:href="#11" y="13.026"/><use xlink:href="#12" y="15.197"/><use xlink:href="#13" y="17.368"/><use xlink:href="#15" y="19.539"/><use xlink:href="#16" y="21.71"/><use xlink:href="#17" y="23.881"/><use xlink:href="#19" y="26.052"/><use xlink:href="#16" y="28.223"/><use xlink:href="#20" y="30.394"/><use xlink:href="#21" y="32.565"/><use xlink:href="#16" y="34.736"/><use xlink:href="#22" y="36.907"/><use xlink:href="#1" y="39.078"/></svg><svg x="2847"><use xlink:href="#a"/><use xlink:href="#b" x="41.996" y="39.053"/><use xlink:href="#3"/><use xlink:href="#4" y="2.171"/><use xlink:href="#5" y="4.342"/><use xlink:href="#6" y="8.684"/><use xlink:href="#10" y="10.855"/><use xlink:href="#11" y="13.026"/><use xlink:href="#12" y="15.197"/><use xlink:href="#13" y="17.368"/><use xlink:href="#15" y="19.539"/><use xlink:href="#16" y="21.71"/><use xlink:href="#17" y="23.881"/><use xlink:href="#19" y="26.052"/><use xlink:href="#16" y="28.223"/><use xlink:href="#20" y="30.394"/><use xlink:href="#21" y="32.565"/><use xlink:href="#16" y="34.736"/><use xlink:href="#22" y="36.907"/><text y="40.748" class="f">aktm@aktm-VirtualBox</text><text x="20.04" y="40.748" class="g">:</text><text x="21.042" y="40.748" class="h">~/php-project-lvl1</text><text x="39.078" y="40.748" class="g">$</text><text x="41.082" y="40.748" class="g">c</text></svg><svg x="2920"><use xlink:href="#a"/><use xlink:href="#b" x="42.996" y="39.053"/><use xlink:href="#3"/><use xlink:href="#4" y="2.171"/><use xlink:href="#5" y="4.342"/><use xlink:href="#6" y="8.684"/><use xlink:href="#10" y="10.855"/><use xlink:href="#11" y="13.026"/><use xlink:href="#12" y="15.197"/><use xlink:href="#13" y="17.368"/><use xlink:href="#15" y="19.539"/><use xlink:href="#16" y="21.71"/><use xlink:href="#17" y="23.881"/><use xlink:href="#19" y="26.052"/><use xlink:href="#16" y="28.223"/><use xlink:href="#20" y="30.394"/><use xlink:href="#21" y="32.565"/><use xlink:href="#16" y="34.736"/><use xlink:href="#22" y="36.907"/><text y="40.748" class="f">aktm@aktm-VirtualBox</text><text x="20.04" y="40.748" class="g">:</text><text x="21.042" y="40.748" class="h">~/php-project-lvl1</text><text x="39.078" y="40.748" class="g">$</text><text x="41.082" y="40.748" class="g">cl</text></svg><svg x="2993"><use xlink:href="#a"/><use xlink:href="#b" x="43.996" y="39.053"/><use xlink:href="#3"/><use xlink:href="#4" y="2.171"/><use xlink:href="#5" y="4.342"/><use xlink:href="#6" y="8.684"/><use xlink:href="#10" y="10.855"/><use xlink:href="#11" y="13.026"/><use xlink:href="#12" y="15.197"/><use xlink:href="#13" y="17.368"/><use xlink:href="#15" y="19.539"/><use xlink:href="#16" y="21.71"/><use xlink:href="#17" y="23.881"/><use xlink:href="#19" y="26.052"/><use xlink:href="#16" y="28.223"/><use xlink:href="#20" y="30.394"/><use xlink:href="#21" y="32.565"/><use xlink:href="#16" y="34.736"/><use xlink:href="#22" y="36.907"/><text y="40.748" class="f">aktm@aktm-VirtualBox</text><text x="20.04" y="40.748" class="g">:</text><text x="21.042" y="40.748" class="h">~/php-project-lvl1</text><text x="39.078" y="40.748" class="g">$</text><text x="41.082" y="40.748" class="g">cle</text></svg><svg x="3066"><use xlink:href="#a"/><use xlink:href="#b" x="44.996" y="39.053"/><use xlink:href="#3"/><use xlink:href="#4" y="2.171"/><use xlink:href="#5" y="4.342"/><use xlink:href="#6" y="8.684"/><use xlink:href="#10" y="10.855"/><use xlink:href="#11" y="13.026"/><use xlink:href="#12" y="15.197"/><use xlink:href="#13" y="17.368"/><use xlink:href="#15" y="19.539"/><use xlink:href="#16" y="21.71"/><use xlink:href="#17" y="23.881"/><use xlink:href="#19" y="26.052"/><use xlink:href="#16" y="28.223"/><use xlink:href="#20" y="30.394"/><use xlink:href="#21" y="32.565"/><use xlink:href="#16" y="34.736"/><use xlink:href="#22" y="36.907"/><text y="40.748" class="f">aktm@aktm-VirtualBox</text><text x="20.04" y="40.748" class="g">:</text><text x="21.042" y="40.748" class="h">~/php-project-lvl1</text><text x="39.078" y="40.748" class="g">$</text><text x="41.082" y="40.748" class="g">clea</text></svg><svg x="3139"><use xlink:href="#a"/><use xlink:href="#b" x="45.996" y="39.053"/><use xlink:href="#3"/><use xlink:href="#4" y="2.171"/><use xlink:href="#5" y="4.342"/><use xlink:href="#6" y="8.684"/><use xlink:href="#10" y="10.855"/><use xlink:href="#11" y="13.026"/><use xlink:href="#12" y="15.197"/><use xlink:href="#13" y="17.368"/><use xlink:href="#15" y="19.539"/><use xlink:href="#16" y="21.71"/><use xlink:href="#17" y="23.881"/><use xlink:href="#19" y="26.052"/><use xlink:href="#16" y="28.223"/><use xlink:href="#20" y="30.394"/><use xlink:href="#21" y="32.565"/><use xlink:href="#16" y="34.736"/><use xlink:href="#22" y="36.907"/><use xlink:href="#23" y="39.078"/></svg><svg x="3212"><use xlink:href="#a"/><use xlink:href="#b" x="-.004" y="41.224"/><use xlink:href="#3"/><use xlink:href="#4" y="2.171"/><use xlink:href="#5" y="4.342"/><use xlink:href="#6" y="8.684"/><use xlink:href="#10" y="10.855"/><use xlink:href="#11" y="13.026"/><use xlink:href="#12" y="15.197"/><use xlink:href="#13" y="17.368"/><use xlink:href="#15" y="19.539"/><use xlink:href="#16" y="21.71"/><use xlink:href="#17" y="23.881"/><use xlink:href="#19" y="26.052"/><use xlink:href="#16" y="28.223"/><use xlink:href="#20" y="30.394"/><use xlink:href="#21" y="32.565"/><use xlink:href="#16" y="34.736"/><use xlink:href="#22" y="36.907"/><use xlink:href="#23" y="39.078"/></svg><svg x="3285"><use xlink:href="#a"/><use xlink:href="#b" x="-.004"/></svg><svg x="3358"><use xlink:href="#a"/><use xlink:href="#b" x="40.996"/><use xlink:href="#1"/></svg><svg x="3431"><use xlink:href="#a"/><use xlink:href="#b" x="45.996"/><use xlink:href="#23"/></svg><svg x="3504"><use xlink:href="#a"/><use xlink:href="#b" x="55.996"/><use xlink:href="#3"/></svg><svg x="3577"><use xlink:href="#a"/><use xlink:href="#b" x="-.004" y="4.317"/><use xlink:href="#3"/><use xlink:href="#4" y="2.171"/></svg><svg x="3650"><use xlink:href="#a"/><use xlink:href="#b" x="11.996" y="4.317"/><use xlink:href="#3"/><use xlink:href="#4" y="2.171"/><use xlink:href="#5" y="4.342"/></svg><svg x="3723"><use xlink:href="#a"/><use xlink:href="#b" x="-.004" y="6.488"/><use xlink:href="#3"/><use xlink:href="#4" y="2.171"/><use xlink:href="#5" y="4.342"/></svg><svg x="3796"><use xlink:href="#a"/><use xlink:href="#b" x="-.004" y="8.659"/><use xlink:href="#3"/><use xlink:href="#4" y="2.171"/><use xlink:href="#5" y="4.342"/></svg><svg x="3869"><use xlink:href="#a"/><use xlink:href="#b" x="26.996" y="8.659"/><use xlink:href="#3"/><use xlink:href="#4" y="2.171"/><use xlink:href="#5" y="4.342"/><use xlink:href="#6" y="8.684"/></svg><svg x="3942"><use xlink:href="#a"/><use xlink:href="#b" x="-.004" y="10.83"/><use xlink:href="#3"/><use xlink:href="#4" y="2.171"/><use xlink:href="#5" y="4.342"/><use xlink:href="#6" y="8.684"/></svg><svg x="4015"><use xlink:href="#a"/><use xlink:href="#b" x="22.996" y="10.83"/><use xlink:href="#3"/><use xlink:href="#4" y="2.171"/><use xlink:href="#5" y="4.342"/><use xlink:href="#6" y="8.684"/><use xlink:href="#7" y="10.855"/></svg><svg x="4088"><use xlink:href="#a"/><use xlink:href="#b" x="23.996" y="10.83"/><use xlink:href="#3"/><use xlink:href="#4" y="2.171"/><use xlink:href="#5" y="4.342"/><use xlink:href="#6" y="8.684"/><use xlink:href="#8" y="10.855"/></svg><svg x="4161"><use xlink:href="#a"/><use xlink:href="#b" x="24.996" y="10.83"/><use xlink:href="#3"/><use xlink:href="#4" y="2.171"/><use xlink:href="#5" y="4.342"/><use xlink:href="#6" y="8.684"/><use xlink:href="#9" y="10.855"/></svg><svg x="4234"><use xlink:href="#a"/><use xlink:href="#b" x="25.996" y="10.83"/><use xlink:href="#3"/><use xlink:href="#4" y="2.171"/><use xlink:href="#5" y="4.342"/><use xlink:href="#6" y="8.684"/><use xlink:href="#10" y="10.855"/></svg><svg x="4307"><use xlink:href="#a"/><use xlink:href="#b" x="-.004" y="13.001"/><use xlink:href="#3"/><use xlink:href="#4" y="2.171"/><use xlink:href="#5" y="4.342"/><use xlink:href="#6" y="8.684"/><use xlink:href="#10" y="10.855"/></svg><svg x="4380"><use xlink:href="#a"/><use xlink:href="#b" x="12.996" y="19.514"/><use xlink:href="#3"/><use xlink:href="#4" y="2.171"/><use xlink:href="#5" y="4.342"/><use xlink:href="#6" y="8.684"/><use xlink:href="#10" y="10.855"/><use xlink:href="#11" y="13.026"/><use xlink:href="#12" y="15.197"/><use xlink:href="#24" y="17.368"/><use xlink:href="#14" y="19.539"/></svg><svg x="4453"><use xlink:href="#a"/><use xlink:href="#b" x="13.996" y="19.514"/><use xlink:href="#3"/><use xlink:href="#4" y="2.171"/><use xlink:href="#5" y="4.342"/><use xlink:href="#6" y="8.684"/><use xlink:href="#10" y="10.855"/><use xlink:href="#11" y="13.026"/><use xlink:href="#12" y="15.197"/><use xlink:href="#24" y="17.368"/><use xlink:href="#18" y="19.539"/></svg><svg x="4526"><use xlink:href="#a"/><use xlink:href="#b" x="14.996" y="19.514"/><use xlink:href="#3"/><use xlink:href="#4" y="2.171"/><use xlink:href="#5" y="4.342"/><use xlink:href="#6" y="8.684"/><use xlink:href="#10" y="10.855"/><use xlink:href="#11" y="13.026"/><use xlink:href="#12" y="15.197"/><use xlink:href="#24" y="17.368"/><use xlink:href="#25" y="19.539"/></svg><svg x="4599"><use xlink:href="#a"/><use xlink:href="#b" x="-.004" y="21.685"/><use xlink:href="#3"/><use xlink:href="#4" y="2.171"/><use xlink:href="#5" y="4.342"/><use xlink:href="#6" y="8.684"/><use xlink:href="#10" y="10.855"/><use xlink:href="#11" y="13.026"/><use xlink:href="#12" y="15.197"/><use xlink:href="#24" y="17.368"/><use xlink:href="#25" y="19.539"/></svg><svg x="4672"><use xlink:href="#a"/><use xlink:href="#b" x="-.004" y="26.027"/><use xlink:href="#3"/><use xlink:href="#4" y="2.171"/><use xlink:href="#5" y="4.342"/><use xlink:href="#6" y="8.684"/><use xlink:href="#10" y="10.855"/><use xlink:href="#11" y="13.026"/><use xlink:href="#12" y="15.197"/><use xlink:href="#24" y="17.368"/><use xlink:href="#25" y="19.539"/><use xlink:href="#26" y="21.71"/><use xlink:href="#27" y="23.881"/></svg><svg x="4745"><use xlink:href="#a"/><use xlink:href="#b" x="40.996" y="26.027"/><use xlink:href="#3"/><use xlink:href="#4" y="2.171"/><use xlink:href="#5" y="4.342"/><use xlink:href="#6" y="8.684"/><use xlink:href="#10" y="10.855"/><use xlink:href="#11" y="13.026"/><use xlink:href="#12" y="15.197"/><use xlink:href="#24" y="17.368"/><use xlink:href="#25" y="19.539"/><use xlink:href="#26" y="21.71"/><use xlink:href="#27" y="23.881"/><use xlink:href="#1" y="26.052"/></svg><svg x="4818"><use xlink:href="#a"/><use xlink:href="#b" x="-.004" y="28.198"/><use xlink:href="#3"/><use xlink:href="#4" y="2.171"/><use xlink:href="#5" y="4.342"/><use xlink:href="#6" y="8.684"/><use xlink:href="#10" y="10.855"/><use xlink:href="#11" y="13.026"/><use xlink:href="#12" y="15.197"/><use xlink:href="#24" y="17.368"/><use xlink:href="#25" y="19.539"/><use xlink:href="#26" y="21.71"/><use xlink:href="#27" y="23.881"/><text y="27.722" class="f">aktm@aktm-VirtualBox</text><text x="20.04" y="27.722" class="g">:</text><text x="21.042" y="27.722" class="h">~/php-project-lvl1</text><text x="39.078" y="27.722" class="g">$</text><text x="41.082" y="27.722" class="g">exit</text></svg></svg></g></g></svg></svg>