<svg xmlns="http://www.w3.org/2000/svg" xmlns:xlink="http://www.w3.org/1999/xlink" width="770" height="515.91"><rect width="770" height="515.91" rx="5" ry="5" class="a"/><svg y="0%" x="0%"><circle cx="20" cy="20" r="6" fill="#ff5f58"/><circle cx="40" cy="20" r="6" fill="#ffbd2e"/><circle cx="60" cy="20" r="6" fill="#18c132"/></svg><svg height="455.91" viewBox="0 0 73 45.591" width="730" x="15" xmlns="http://www.w3.org/2000/svg" xmlns:xlink="http://www.w3.org/1999/xlink" y="50"><style>@keyframes k{0%{transform:translateX(0)}.22%{transform:translateX(-73px)}3.99%{transform:translateX(-146px)}4.46%{transform:translateX(-219px)}6.06%{transform:translateX(-292px)}6.53%{transform:translateX(-365px)}7.19%{transform:translateX(-438px)}10.58%{transform:translateX(-511px)}11.75%{transform:translateX(-584px)}12.2%{transform:translateX(-657px)}13.99%{transform:translateX(-730px)}15.28%{transform:translateX(-803px)}17.65%{transform:translateX(-876px)}20.55%{transform:translateX(-949px)}21.04%{transform:translateX(-1022px)}21.86%{transform:translateX(-1095px)}25.63%{transform:translateX(-1168px)}26.33%{transform:translateX(-1241px)}26.42%{transform:translateX(-1314px)}26.44%{transform:translateX(-1533px)}30.21%{transform:translateX(-1606px)}31.55%{transform:translateX(-1679px)}32.35%{transform:translateX(-1752px)}35.7%{transform:translateX(-1825px)}35.71%{transform:translateX(-2336px)}39.48%{transform:translateX(-2409px)}43.25%{transform:translateX(-2847px)}47.02%{transform:translateX(-2920px)}50.79%{transform:translateX(-2993px)}54.55%{transform:translateX(-3066px)}58.22%{transform:translateX(-3431px)}58.28%{transform:translateX(-3504px)}62.05%{transform:translateX(-3577px)}62.53%{transform:translateX(-3650px)}63.16%{transform:translateX(-3723px)}64.17%{transform:translateX(-3796px)}64.57%{transform:translateX(-3869px)}67.71%{transform:translateX(-4015px)}71.48%{transform:translateX(-4088px)}73.37%{transform:translateX(-4161px)}77.14%{transform:translateX(-4234px)}77.71%{transform:translateX(-4307px)}77.72%{transform:translateX(-4380px)}77.8%{transform:translateX(-4453px)}77.82%{transform:translateX(-4672px)}81.59%{transform:translateX(-4745px)}83.25%{transform:translateX(-4818px)}84.01%{transform:translateX(-4891px)}86.04%{transform:translateX(-5256px)}89.81%{transform:translateX(-5329px)}90.65%{transform:translateX(-5402px)}91.45%{transform:translateX(-5475px)}92.42%{transform:translateX(-5548px)}96.18%{transform:translateX(-5621px)}96.19%{transform:translateX(-5767px)}96.23%{transform:translateX(-5840px)}to{transform:translateX(-5913px)}}.a{fill:#282d35}.f,.g,.h{white-space:pre}.f{fill:#a8cc8c;font-weight:700}.g,.h{fill:#b9c0cb}.h{fill:#71bef2;font-weight:700}</style><g font-family="Monaco,Consolas,Menlo,'Bitstream Vera Sans Mono','Powerline Symbols',monospace" font-size="1.67"><defs><symbol id="14"><text y="1.67" class="g">Your</text><text x="5.01" y="1.67" class="g">answer:</text></symbol><symbol id="1"><text y="1.67" class="f">aktm@aktm-VirtualBox</text><text x="20.04" y="1.67" class="g">:</text><text x="21.042" y="1.67" class="h">~/php-project-lvl1</text><text x="39.078" y="1.67" class="g">$</text></symbol><symbol id="3"><text y="1.67" class="f">aktm@aktm-VirtualBox</text><text x="20.04" y="1.67" class="g">:</text><text x="21.042" y="1.67" class="h">~/php-project-lvl1</text><text x="39.078" y="1.67" class="g">$</text><text x="41.082" y="1.67" class="g">make</text><text x="46.092" y="1.67" class="g">brain-gcd</text></symbol><symbol id="4"><text y="1.67" class="g">composer</text><text x="9.018" y="1.67" class="g">run-script</text><text x="20.04" y="1.67" class="g">brain-gcd</text></symbol><symbol id="5"><text y="1.67" class="g">&gt;</text><text x="2.004" y="1.67" class="g">brain-gcd</text></symbol><symbol id="6"><text y="1.67" class="g">Welcome</text><text x="8.016" y="1.67" class="g">to</text><text x="11.022" y="1.67" class="g">the</text><text x="15.03" y="1.67" class="g">Brain</text><text x="21.042" y="1.67" class="g">games!</text></symbol><symbol id="7"><text y="1.67" class="g">May</text><text x="4.008" y="1.67" class="g">I</text><text x="6.012" y="1.67" class="g">have</text><text x="11.022" y="1.67" class="g">your</text><text x="16.032" y="1.67" class="g">name?:</text></symbol><symbol id="8"><text y="1.67" class="g">May</text><text x="4.008" y="1.67" class="g">I</text><text x="6.012" y="1.67" class="g">have</text><text x="11.022" y="1.67" class="g">your</text><text x="16.032" y="1.67" class="g">name?:</text><text x="23.046" y="1.67" class="g">N</text></symbol><symbol id="9"><text y="1.67" class="g">May</text><text x="4.008" y="1.67" class="g">I</text><text x="6.012" y="1.67" class="g">have</text><text x="11.022" y="1.67" class="g">your</text><text x="16.032" y="1.67" class="g">name?:</text><text x="23.046" y="1.67" class="g">Ne</text></symbol><symbol id="10"><text y="1.67" class="g">May</text><text x="4.008" y="1.67" class="g">I</text><text x="6.012" y="1.67" class="g">have</text><text x="11.022" y="1.67" class="g">your</text><text x="16.032" y="1.67" class="g">name?:</text><text x="23.046" y="1.67" class="g">Neo</text></symbol><symbol id="11"><text y="1.67" class="g">Hello,</text><text x="7.014" y="1.67" class="g">Neo</text></symbol><symbol id="12"><text y="1.67" class="g">Find</text><text x="5.01" y="1.67" class="g">the</text><text x="9.018" y="1.67" class="g">greates</text><text x="17.034" y="1.67" class="g">common</text><text x="24.048" y="1.67" class="g">divisor</text><text x="32.064" y="1.67" class="g">of</text><text x="35.07" y="1.67" class="g">given</text><text x="41.082" y="1.67" class="g">numbers</text></symbol><symbol id="13"><text y="1.67" class="g">Question:</text><text x="10.02" y="1.67" class="g">22</text><text x="13.026" y="1.67" class="g">20</text></symbol><symbol id="2"><text y="1.67" class="f">aktm@aktm-VirtualBox</text><text x="20.04" y="1.67" class="g">:</text><text x="21.042" y="1.67" class="h">~/php-project-lvl1</text><text x="39.078" y="1.67" class="g">$</text><text x="41.082" y="1.67" class="g">make</text></symbol><symbol id="15"><text y="1.67" class="g">Your</text><text x="5.01" y="1.67" class="g">answer:</text><text x="13.026" y="1.67" class="g">2</text></symbol><symbol id="16"><text y="1.67" class="g">Correct!</text></symbol><symbol id="17"><text y="1.67" class="g">Question:</text><text x="10.02" y="1.67" class="g">11</text><text x="13.026" y="1.67" class="g">12</text></symbol><symbol id="18"><text y="1.67" class="g">Your</text><text x="5.01" y="1.67" class="g">answer:</text><text x="13.026" y="1.67" class="g">1</text></symbol><symbol id="19"><text y="1.67" class="g">Question:</text><text x="10.02" y="1.67" class="g">5</text><text x="12.024" y="1.67" class="g">24</text></symbol><symbol id="20"><text y="1.67" class="g">Congratulations,</text><text x="17.034" y="1.67" class="g">Neo!</text></symbol><symbol id="21"><text y="1.67" class="f">aktm@aktm-VirtualBox</text><text x="20.04" y="1.67" class="g">:</text><text x="21.042" y="1.67" class="h">~/php-project-lvl1</text><text x="39.078" y="1.67" class="g">$</text><text x="41.082" y="1.67" class="g">clear</text></symbol><symbol id="22"><text y="1.67" class="g">Question:</text><text x="10.02" y="1.67" class="g">29</text><text x="13.026" y="1.67" class="g">16</text></symbol><symbol id="23"><text y="1.67" class="g">Your</text><text x="5.01" y="1.67" class="g">answer:</text><text x="13.026" y="1.67" class="g">2916</text></symbol><symbol id="24"><text y="1.67" class="g">&apos;2916&apos;</text><text x="7.014" y="1.67" class="g">is</text><text x="10.02" y="1.67" class="g">wrong</text><text x="16.032" y="1.67" class="g">answer</text><text x="23.046" y="1.67" class="g">;(.</text><text x="27.054" y="1.67" class="g">Correct</text><text x="35.07" y="1.67" class="g">answer</text><text x="42.084" y="1.67" class="g">was</text><text x="46.092" y="1.67" class="g">&apos;1&apos;.</text></symbol><symbol id="25"><text y="1.67" class="g">Let&apos;s</text><text x="6.012" y="1.67" class="g">try</text><text x="10.02" y="1.67" class="g">again,</text><text x="17.034" y="1.67" class="g">Neo!</text></symbol><symbol id="a"><path fill="transparent" d="M0 0h73v21H0z"/></symbol><symbol id="b"><path fill="#6f7683" d="M0 0h1.102v2.171H0z"/></symbol></defs><path class="a" d="M0 0h73v45.591H0z"/><g style="animation-duration:21.23676300000001s;animation-iteration-count:infinite;animation-name:k;animation-timing-function:steps(1,end)"><svg width="5986"><svg><use xlink:href="#a"/><use xlink:href="#b" x="-.004"/></svg><svg x="73"><use xlink:href="#a"/><use xlink:href="#b" x="40.996"/><use xlink:href="#1"/></svg><svg x="146"><use xlink:href="#a"/><use xlink:href="#b" x="41.996"/><text y="1.67" class="f">aktm@aktm-VirtualBox</text><text x="20.04" y="1.67" class="g">:</text><text x="21.042" y="1.67" class="h">~/php-project-lvl1</text><text x="39.078" y="1.67" class="g">$</text><text x="41.082" y="1.67" class="g">m</text></svg><svg x="219"><use xlink:href="#a"/><use xlink:href="#b" x="42.996"/><text y="1.67" class="f">aktm@aktm-VirtualBox</text><text x="20.04" y="1.67" class="g">:</text><text x="21.042" y="1.67" class="h">~/php-project-lvl1</text><text x="39.078" y="1.67" class="g">$</text><text x="41.082" y="1.67" class="g">ma</text></svg><svg x="292"><use xlink:href="#a"/><use xlink:href="#b" x="43.996"/><text y="1.67" class="f">aktm@aktm-VirtualBox</text><text x="20.04" y="1.67" class="g">:</text><text x="21.042" y="1.67" class="h">~/php-project-lvl1</text><text x="39.078" y="1.67" class="g">$</text><text x="41.082" y="1.67" class="g">mak</text></svg><svg x="365"><use xlink:href="#a"/><use xlink:href="#b" x="44.996"/><use xlink:href="#2"/></svg><svg x="438"><use xlink:href="#a"/><use xlink:href="#b" x="45.996"/><use xlink:href="#2"/></svg><svg x="511"><use xlink:href="#a"/><use xlink:href="#b" x="46.996"/><text y="1.67" class="f">aktm@aktm-VirtualBox</text><text x="20.04" y="1.67" class="g">:</text><text x="21.042" y="1.67" class="h">~/php-project-lvl1</text><text x="39.078" y="1.67" class="g">$</text><text x="41.082" y="1.67" class="g">make</text><text x="46.092" y="1.67" class="g">b</text></svg><svg x="584"><use xlink:href="#a"/><use xlink:href="#b" x="47.996"/><text y="1.67" class="f">aktm@aktm-VirtualBox</text><text x="20.04" y="1.67" class="g">:</text><text x="21.042" y="1.67" class="h">~/php-project-lvl1</text><text x="39.078" y="1.67" class="g">$</text><text x="41.082" y="1.67" class="g">make</text><text x="46.092" y="1.67" class="g">br</text></svg><svg x="657"><use xlink:href="#a"/><use xlink:href="#b" x="48.996"/><text y="1.67" class="f">aktm@aktm-VirtualBox</text><text x="20.04" y="1.67" class="g">:</text><text x="21.042" y="1.67" class="h">~/php-project-lvl1</text><text x="39.078" y="1.67" class="g">$</text><text x="41.082" y="1.67" class="g">make</text><text x="46.092" y="1.67" class="g">bra</text></svg><svg x="730"><use xlink:href="#a"/><use xlink:href="#b" x="49.996"/><text y="1.67" class="f">aktm@aktm-VirtualBox</text><text x="20.04" y="1.67" class="g">:</text><text x="21.042" y="1.67" class="h">~/php-project-lvl1</text><text x="39.078" y="1.67" class="g">$</text><text x="41.082" y="1.67" class="g">make</text><text x="46.092" y="1.67" class="g">brai</text></svg><svg x="803"><use xlink:href="#a"/><use xlink:href="#b" x="50.996"/><text y="1.67" class="f">aktm@aktm-VirtualBox</text><text x="20.04" y="1.67" class="g">:</text><text x="21.042" y="1.67" class="h">~/php-project-lvl1</text><text x="39.078" y="1.67" class="g">$</text><text x="41.082" y="1.67" class="g">make</text><text x="46.092" y="1.67" class="g">brain</text></svg><svg x="876"><use xlink:href="#a"/><use xlink:href="#b" x="51.996"/><text y="1.67" class="f">aktm@aktm-VirtualBox</text><text x="20.04" y="1.67" class="g">:</text><text x="21.042" y="1.67" class="h">~/php-project-lvl1</text><text x="39.078" y="1.67" class="g">$</text><text x="41.082" y="1.67" class="g">make</text><text x="46.092" y="1.67" class="g">brain-</text></svg><svg x="949"><use xlink:href="#a"/><use xlink:href="#b" x="52.996"/><text y="1.67" class="f">aktm@aktm-VirtualBox</text><text x="20.04" y="1.67" class="g">:</text><text x="21.042" y="1.67" class="h">~/php-project-lvl1</text><text x="39.078" y="1.67" class="g">$</text><text x="41.082" y="1.67" class="g">make</text><text x="46.092" y="1.67" class="g">brain-g</text></svg><svg x="1022"><use xlink:href="#a"/><use xlink:href="#b" x="53.996"/><text y="1.67" class="f">aktm@aktm-VirtualBox</text><text x="20.04" y="1.67" class="g">:</text><text x="21.042" y="1.67" class="h">~/php-project-lvl1</text><text x="39.078" y="1.67" class="g">$</text><text x="41.082" y="1.67" class="g">make</text><text x="46.092" y="1.67" class="g">brain-gc</text></svg><svg x="1095"><use xlink:href="#a"/><use xlink:href="#b" x="54.996"/><use xlink:href="#3"/></svg><svg x="1168"><use xlink:href="#a"/><use xlink:href="#b" x="-.004" y="4.317"/><use xlink:href="#3"/><use xlink:href="#4" y="2.171"/></svg><svg x="1241"><use xlink:href="#a"/><use xlink:href="#b" x="-.004" y="6.488"/><use xlink:href="#3"/><use xlink:href="#4" y="2.171"/><use xlink:href="#5" y="4.342"/></svg><svg x="1314"><use xlink:href="#a"/><use xlink:href="#b" x="-.004" y="8.659"/><use xlink:href="#3"/><use xlink:href="#4" y="2.171"/><use xlink:href="#5" y="4.342"/></svg><svg x="1387"><use xlink:href="#a"/><use xlink:href="#b" x="26.996" y="8.659"/><use xlink:href="#3"/><use xlink:href="#4" y="2.171"/><use xlink:href="#5" y="4.342"/><use xlink:href="#6" y="8.684"/></svg><svg x="1460"><use xlink:href="#a"/><use xlink:href="#b" x="-.004" y="10.83"/><use xlink:href="#3"/><use xlink:href="#4" y="2.171"/><use xlink:href="#5" y="4.342"/><use xlink:href="#6" y="8.684"/></svg><svg x="1533"><use xlink:href="#a"/><use xlink:href="#b" x="22.996" y="10.83"/><use xlink:href="#3"/><use xlink:href="#4" y="2.171"/><use xlink:href="#5" y="4.342"/><use xlink:href="#6" y="8.684"/><use xlink:href="#7" y="10.855"/></svg><svg x="1606"><use xlink:href="#a"/><use xlink:href="#b" x="23.996" y="10.83"/><use xlink:href="#3"/><use xlink:href="#4" y="2.171"/><use xlink:href="#5" y="4.342"/><use xlink:href="#6" y="8.684"/><use xlink:href="#8" y="10.855"/></svg><svg x="1679"><use xlink:href="#a"/><use xlink:href="#b" x="24.996" y="10.83"/><use xlink:href="#3"/><use xlink:href="#4" y="2.171"/><use xlink:href="#5" y="4.342"/><use xlink:href="#6" y="8.684"/><use xlink:href="#9" y="10.855"/></svg><svg x="1752"><use xlink:href="#a"/><use xlink:href="#b" x="25.996" y="10.83"/><use xlink:href="#3"/><use xlink:href="#4" y="2.171"/><use xlink:href="#5" y="4.342"/><use xlink:href="#6" y="8.684"/><use xlink:href="#10" y="10.855"/></svg><svg x="1825"><use xlink:href="#a"/><use xlink:href="#b" x="-.004" y="13.001"/><use xlink:href="#3"/><use xlink:href="#4" y="2.171"/><use xlink:href="#5" y="4.342"/><use xlink:href="#6" y="8.684"/><use xlink:href="#10" y="10.855"/></svg><svg x="1898"><use xlink:href="#a"/><use xlink:href="#b" x="9.996" y="13.001"/><use xlink:href="#3"/><use xlink:href="#4" y="2.171"/><use xlink:href="#5" y="4.342"/><use xlink:href="#6" y="8.684"/><use xlink:href="#10" y="10.855"/><use xlink:href="#11" y="13.026"/></svg><svg x="1971"><use xlink:href="#a"/><use xlink:href="#b" x="-.004" y="15.172"/><use xlink:href="#3"/><use xlink:href="#4" y="2.171"/><use xlink:href="#5" y="4.342"/><use xlink:href="#6" y="8.684"/><use xlink:href="#10" y="10.855"/><use xlink:href="#11" y="13.026"/></svg><svg x="2044"><use xlink:href="#a"/><use xlink:href="#b" x="47.996" y="15.172"/><use xlink:href="#3"/><use xlink:href="#4" y="2.171"/><use xlink:href="#5" y="4.342"/><use xlink:href="#6" y="8.684"/><use xlink:href="#10" y="10.855"/><use xlink:href="#11" y="13.026"/><use xlink:href="#12" y="15.197"/></svg><svg x="2117"><use xlink:href="#a"/><use xlink:href="#b" x="-.004" y="17.343"/><use xlink:href="#3"/><use xlink:href="#4" y="2.171"/><use xlink:href="#5" y="4.342"/><use xlink:href="#6" y="8.684"/><use xlink:href="#10" y="10.855"/><use xlink:href="#11" y="13.026"/><use xlink:href="#12" y="15.197"/></svg><svg x="2190"><use xlink:href="#a"/><use xlink:href="#b" x="14.996" y="17.343"/><use xlink:href="#3"/><use xlink:href="#4" y="2.171"/><use xlink:href="#5" y="4.342"/><use xlink:href="#6" y="8.684"/><use xlink:href="#10" y="10.855"/><use xlink:href="#11" y="13.026"/><use xlink:href="#12" y="15.197"/><use xlink:href="#13" y="17.368"/></svg><svg x="2263"><use xlink:href="#a"/><use xlink:href="#b" x="-.004" y="19.514"/><use xlink:href="#3"/><use xlink:href="#4" y="2.171"/><use xlink:href="#5" y="4.342"/><use xlink:href="#6" y="8.684"/><use xlink:href="#10" y="10.855"/><use xlink:href="#11" y="13.026"/><use xlink:href="#12" y="15.197"/><use xlink:href="#13" y="17.368"/></svg><svg x="2336"><use xlink:href="#a"/><use xlink:href="#b" x="12.996" y="19.514"/><use xlink:href="#3"/><use xlink:href="#4" y="2.171"/><use xlink:href="#5" y="4.342"/><use xlink:href="#6" y="8.684"/><use xlink:href="#10" y="10.855"/><use xlink:href="#11" y="13.026"/><use xlink:href="#12" y="15.197"/><use xlink:href="#13" y="17.368"/><use xlink:href="#14" y="19.539"/></svg><svg x="2409"><use xlink:href="#a"/><use xlink:href="#b" x="13.996" y="19.514"/><use xlink:href="#3"/><use xlink:href="#4" y="2.171"/><use xlink:href="#5" y="4.342"/><use xlink:href="#6" y="8.684"/><use xlink:href="#10" y="10.855"/><use xlink:href="#11" y="13.026"/><use xlink:href="#12" y="15.197"/><use xlink:href="#13" y="17.368"/><use xlink:href="#15" y="19.539"/></svg><svg x="2482"><use xlink:href="#a"/><use xlink:href="#b" x="-.004" y="21.685"/><use xlink:href="#3"/><use xlink:href="#4" y="2.171"/><use xlink:href="#5" y="4.342"/><use xlink:href="#6" y="8.684"/><use xlink:href="#10" y="10.855"/><use xlink:href="#11" y="13.026"/><use xlink:href="#12" y="15.197"/><use xlink:href="#13" y="17.368"/><use xlink:href="#15" y="19.539"/></svg><svg x="2555"><use xlink:href="#a"/><use xlink:href="#b" x="7.996" y="21.685"/><use xlink:href="#3"/><use xlink:href="#4" y="2.171"/><use xlink:href="#5" y="4.342"/><use xlink:href="#6" y="8.684"/><use xlink:href="#10" y="10.855"/><use xlink:href="#11" y="13.026"/><use xlink:href="#12" y="15.197"/><use xlink:href="#13" y="17.368"/><use xlink:href="#15" y="19.539"/><use xlink:href="#16" y="21.71"/></svg><svg x="2628"><use xlink:href="#a"/><use xlink:href="#b" x="-.004" y="23.856"/><use xlink:href="#3"/><use xlink:href="#4" y="2.171"/><use xlink:href="#5" y="4.342"/><use xlink:href="#6" y="8.684"/><use xlink:href="#10" y="10.855"/><use xlink:href="#11" y="13.026"/><use xlink:href="#12" y="15.197"/><use xlink:href="#13" y="17.368"/><use xlink:href="#15" y="19.539"/><use xlink:href="#16" y="21.71"/></svg><svg x="2701"><use xlink:href="#a"/><use xlink:href="#b" x="14.996" y="23.856"/><use xlink:href="#3"/><use xlink:href="#4" y="2.171"/><use xlink:href="#5" y="4.342"/><use xlink:href="#6" y="8.684"/><use xlink:href="#10" y="10.855"/><use xlink:href="#11" y="13.026"/><use xlink:href="#12" y="15.197"/><use xlink:href="#13" y="17.368"/><use xlink:href="#15" y="19.539"/><use xlink:href="#16" y="21.71"/><use xlink:href="#17" y="23.881"/></svg><svg x="2774"><use xlink:href="#a"/><use xlink:href="#b" x="-.004" y="26.027"/><use xlink:href="#3"/><use xlink:href="#4" y="2.171"/><use xlink:href="#5" y="4.342"/><use xlink:href="#6" y="8.684"/><use xlink:href="#10" y="10.855"/><use xlink:href="#11" y="13.026"/><use xlink:href="#12" y="15.197"/><use xlink:href="#13" y="17.368"/><use xlink:href="#15" y="19.539"/><use xlink:href="#16" y="21.71"/><use xlink:href="#17" y="23.881"/></svg><svg x="2847"><use xlink:href="#a"/><use xlink:href="#b" x="12.996" y="26.027"/><use xlink:href="#3"/><use xlink:href="#4" y="2.171"/><use xlink:href="#5" y="4.342"/><use xlink:href="#6" y="8.684"/><use xlink:href="#10" y="10.855"/><use xlink:href="#11" y="13.026"/><use xlink:href="#12" y="15.197"/><use xlink:href="#13" y="17.368"/><use xlink:href="#15" y="19.539"/><use xlink:href="#16" y="21.71"/><use xlink:href="#17" y="23.881"/><use xlink:href="#14" y="26.052"/></svg><svg x="2920"><use xlink:href="#a"/><use xlink:href="#b" x="13.996" y="26.027"/><use xlink:href="#3"/><use xlink:href="#4" y="2.171"/><use xlink:href="#5" y="4.342"/><use xlink:href="#6" y="8.684"/><use xlink:href="#10" y="10.855"/><use xlink:href="#11" y="13.026"/><use xlink:href="#12" y="15.197"/><use xlink:href="#13" y="17.368"/><use xlink:href="#15" y="19.539"/><use xlink:href="#16" y="21.71"/><use xlink:href="#17" y="23.881"/><use xlink:href="#18" y="26.052"/></svg><svg x="2993"><use xlink:href="#a"/><use xlink:href="#b" x="12.996" y="32.54"/><use xlink:href="#3"/><use xlink:href="#4" y="2.171"/><use xlink:href="#5" y="4.342"/><use xlink:href="#6" y="8.684"/><use xlink:href="#10" y="10.855"/><use xlink:href="#11" y="13.026"/><use xlink:href="#12" y="15.197"/><use xlink:href="#13" y="17.368"/><use xlink:href="#15" y="19.539"/><use xlink:href="#16" y="21.71"/><use xlink:href="#17" y="23.881"/><use xlink:href="#18" y="26.052"/><use xlink:href="#16" y="28.223"/><use xlink:href="#19" y="30.394"/><use xlink:href="#14" y="32.565"/></svg><svg x="3066"><use xlink:href="#a"/><use xlink:href="#b" x="13.996" y="32.54"/><use xlink:href="#3"/><use xlink:href="#4" y="2.171"/><use xlink:href="#5" y="4.342"/><use xlink:href="#6" y="8.684"/><use xlink:href="#10" y="10.855"/><use xlink:href="#11" y="13.026"/><use xlink:href="#12" y="15.197"/><use xlink:href="#13" y="17.368"/><use xlink:href="#15" y="19.539"/><use xlink:href="#16" y="21.71"/><use xlink:href="#17" y="23.881"/><use xlink:href="#18" y="26.052"/><use xlink:href="#16" y="28.223"/><use xlink:href="#19" y="30.394"/><use xlink:href="#18" y="32.565"/></svg><svg x="3139"><use xlink:href="#a"/><use xlink:href="#b" x="-.004" y="34.711"/><use xlink:href="#3"/><use xlink:href="#4" y="2.171"/><use xlink:href="#5" y="4.342"/><use xlink:href="#6" y="8.684"/><use xlink:href="#10" y="10.855"/><use xlink:href="#11" y="13.026"/><use xlink:href="#12" y="15.197"/><use xlink:href="#13" y="17.368"/><use xlink:href="#15" y="19.539"/><use xlink:href="#16" y="21.71"/><use xlink:href="#17" y="23.881"/><use xlink:href="#18" y="26.052"/><use xlink:href="#16" y="28.223"/><use xlink:href="#19" y="30.394"/><use xlink:href="#18" y="32.565"/></svg><svg x="3212"><use xlink:href="#a"/><use xlink:href="#b" x="7.996" y="34.711"/><use xlink:href="#3"/><use xlink:href="#4" y="2.171"/><use xlink:href="#5" y="4.342"/><use xlink:href="#6" y="8.684"/><use xlink:href="#10" y="10.855"/><use xlink:href="#11" y="13.026"/><use xlink:href="#12" y="15.197"/><use xlink:href="#13" y="17.368"/><use xlink:href="#15" y="19.539"/><use xlink:href="#16" y="21.71"/><use xlink:href="#17" y="23.881"/><use xlink:href="#18" y="26.052"/><use xlink:href="#16" y="28.223"/><use xlink:href="#19" y="30.394"/><use xlink:href="#18" y="32.565"/><use xlink:href="#16" y="34.736"/></svg><svg x="3285"><use xlink:href="#a"/><use xlink:href="#b" x="-.004" y="36.882"/><use xlink:href="#3"/><use xlink:href="#4" y="2.171"/><use xlink:href="#5" y="4.342"/><use xlink:href="#6" y="8.684"/><use xlink:href="#10" y="10.855"/><use xlink:href="#11" y="13.026"/><use xlink:href="#12" y="15.197"/><use xlink:href="#13" y="17.368"/><use xlink:href="#15" y="19.539"/><use xlink:href="#16" y="21.71"/><use xlink:href="#17" y="23.881"/><use xlink:href="#18" y="26.052"/><use xlink:href="#16" y="28.223"/><use xlink:href="#19" y="30.394"/><use xlink:href="#18" y="32.565"/><use xlink:href="#16" y="34.736"/></svg><svg x="3358"><use xlink:href="#a"/><use xlink:href="#b" x="20.996" y="36.882"/><use xlink:href="#3"/><use xlink:href="#4" y="2.171"/><use xlink:href="#5" y="4.342"/><use xlink:href="#6" y="8.684"/><use xlink:href="#10" y="10.855"/><use xlink:href="#11" y="13.026"/><use xlink:href="#12" y="15.197"/><use xlink:href="#13" y="17.368"/><use xlink:href="#15" y="19.539"/><use xlink:href="#16" y="21.71"/><use xlink:href="#17" y="23.881"/><use xlink:href="#18" y="26.052"/><use xlink:href="#16" y="28.223"/><use xlink:href="#19" y="30.394"/><use xlink:href="#18" y="32.565"/><use xlink:href="#16" y="34.736"/><use xlink:href="#20" y="36.907"/></svg><svg x="3431"><use xlink:href="#a"/><use xlink:href="#b" x="-.004" y="39.053"/><use xlink:href="#3"/><use xlink:href="#4" y="2.171"/><use xlink:href="#5" y="4.342"/><use xlink:href="#6" y="8.684"/><use xlink:href="#10" y="10.855"/><use xlink:href="#11" y="13.026"/><use xlink:href="#12" y="15.197"/><use xlink:href="#13" y="17.368"/><use xlink:href="#15" y="19.539"/><use xlink:href="#16" y="21.71"/><use xlink:href="#17" y="23.881"/><use xlink:href="#18" y="26.052"/><use xlink:href="#16" y="28.223"/><use xlink:href="#19" y="30.394"/><use xlink:href="#18" y="32.565"/><use xlink:href="#16" y="34.736"/><use xlink:href="#20" y="36.907"/></svg><svg x="3504"><use xlink:href="#a"/><use xlink:href="#b" x="40.996" y="39.053"/><use xlink:href="#3"/><use xlink:href="#4" y="2.171"/><use xlink:href="#5" y="4.342"/><use xlink:href="#6" y="8.684"/><use xlink:href="#10" y="10.855"/><use xlink:href="#11" y="13.026"/><use xlink:href="#12" y="15.197"/><use xlink:href="#13" y="17.368"/><use xlink:href="#15" y="19.539"/><use xlink:href="#16" y="21.71"/><use xlink:href="#17" y="23.881"/><use xlink:href="#18" y="26.052"/><use xlink:href="#16" y="28.223"/><use xlink:href="#19" y="30.394"/><use xlink:href="#18" y="32.565"/><use xlink:href="#16" y="34.736"/><use xlink:href="#20" y="36.907"/><use xlink:href="#1" y="39.078"/></svg><svg x="3577"><use xlink:href="#a"/><use xlink:href="#b" x="41.996" y="39.053"/><use xlink:href="#3"/><use xlink:href="#4" y="2.171"/><use xlink:href="#5" y="4.342"/><use xlink:href="#6" y="8.684"/><use xlink:href="#10" y="10.855"/><use xlink:href="#11" y="13.026"/><use xlink:href="#12" y="15.197"/><use xlink:href="#13" y="17.368"/><use xlink:href="#15" y="19.539"/><use xlink:href="#16" y="21.71"/><use xlink:href="#17" y="23.881"/><use xlink:href="#18" y="26.052"/><use xlink:href="#16" y="28.223"/><use xlink:href="#19" y="30.394"/><use xlink:href="#18" y="32.565"/><use xlink:href="#16" y="34.736"/><use xlink:href="#20" y="36.907"/><text y="40.748" class="f">aktm@aktm-VirtualBox</text><text x="20.04" y="40.748" class="g">:</text><text x="21.042" y="40.748" class="h">~/php-project-lvl1</text><text x="39.078" y="40.748" class="g">$</text><text x="41.082" y="40.748" class="g">c</text></svg><svg x="3650"><use xlink:href="#a"/><use xlink:href="#b" x="42.996" y="39.053"/><use xlink:href="#3"/><use xlink:href="#4" y="2.171"/><use xlink:href="#5" y="4.342"/><use xlink:href="#6" y="8.684"/><use xlink:href="#10" y="10.855"/><use xlink:href="#11" y="13.026"/><use xlink:href="#12" y="15.197"/><use xlink:href="#13" y="17.368"/><use xlink:href="#15" y="19.539"/><use xlink:href="#16" y="21.71"/><use xlink:href="#17" y="23.881"/><use xlink:href="#18" y="26.052"/><use xlink:href="#16" y="28.223"/><use xlink:href="#19" y="30.394"/><use xlink:href="#18" y="32.565"/><use xlink:href="#16" y="34.736"/><use xlink:href="#20" y="36.907"/><text y="40.748" class="f">aktm@aktm-VirtualBox</text><text x="20.04" y="40.748" class="g">:</text><text x="21.042" y="40.748" class="h">~/php-project-lvl1</text><text x="39.078" y="40.748" class="g">$</text><text x="41.082" y="40.748" class="g">cl</text></svg><svg x="3723"><use xlink:href="#a"/><use xlink:href="#b" x="43.996" y="39.053"/><use xlink:href="#3"/><use xlink:href="#4" y="2.171"/><use xlink:href="#5" y="4.342"/><use xlink:href="#6" y="8.684"/><use xlink:href="#10" y="10.855"/><use xlink:href="#11" y="13.026"/><use xlink:href="#12" y="15.197"/><use xlink:href="#13" y="17.368"/><use xlink:href="#15" y="19.539"/><use xlink:href="#16" y="21.71"/><use xlink:href="#17" y="23.881"/><use xlink:href="#18" y="26.052"/><use xlink:href="#16" y="28.223"/><use xlink:href="#19" y="30.394"/><use xlink:href="#18" y="32.565"/><use xlink:href="#16" y="34.736"/><use xlink:href="#20" y="36.907"/><text y="40.748" class="f">aktm@aktm-VirtualBox</text><text x="20.04" y="40.748" class="g">:</text><text x="21.042" y="40.748" class="h">~/php-project-lvl1</text><text x="39.078" y="40.748" class="g">$</text><text x="41.082" y="40.748" class="g">cle</text></svg><svg x="3796"><use xlink:href="#a"/><use xlink:href="#b" x="44.996" y="39.053"/><use xlink:href="#3"/><use xlink:href="#4" y="2.171"/><use xlink:href="#5" y="4.342"/><use xlink:href="#6" y="8.684"/><use xlink:href="#10" y="10.855"/><use xlink:href="#11" y="13.026"/><use xlink:href="#12" y="15.197"/><use xlink:href="#13" y="17.368"/><use xlink:href="#15" y="19.539"/><use xlink:href="#16" y="21.71"/><use xlink:href="#17" y="23.881"/><use xlink:href="#18" y="26.052"/><use xlink:href="#16" y="28.223"/><use xlink:href="#19" y="30.394"/><use xlink:href="#18" y="32.565"/><use xlink:href="#16" y="34.736"/><use xlink:href="#20" y="36.907"/><text y="40.748" class="f">aktm@aktm-VirtualBox</text><text x="20.04" y="40.748" class="g">:</text><text x="21.042" y="40.748" class="h">~/php-project-lvl1</text><text x="39.078" y="40.748" class="g">$</text><text x="41.082" y="40.748" class="g">clea</text></svg><svg x="3869"><use xlink:href="#a"/><use xlink:href="#b" x="45.996" y="39.053"/><use xlink:href="#3"/><use xlink:href="#4" y="2.171"/><use xlink:href="#5" y="4.342"/><use xlink:href="#6" y="8.684"/><use xlink:href="#10" y="10.855"/><use xlink:href="#11" y="13.026"/><use xlink:href="#12" y="15.197"/><use xlink:href="#13" y="17.368"/><use xlink:href="#15" y="19.539"/><use xlink:href="#16" y="21.71"/><use xlink:href="#17" y="23.881"/><use xlink:href="#18" y="26.052"/><use xlink:href="#16" y="28.223"/><use xlink:href="#19" y="30.394"/><use xlink:href="#18" y="32.565"/><use xlink:href="#16" y="34.736"/><use xlink:href="#20" y="36.907"/><use xlink:href="#21" y="39.078"/></svg><svg x="3942"><use xlink:href="#a"/><use xlink:href="#b" x="-.004"/></svg><svg x="4015"><use xlink:href="#a"/><use xlink:href="#b" x="40.996"/><use xlink:href="#1"/></svg><svg x="4088"><use xlink:href="#a"/><use xlink:href="#b" x="45.996"/><use xlink:href="#21"/></svg><svg x="4161"><use xlink:href="#a"/><use xlink:href="#b" x="54.996"/><use xlink:href="#3"/></svg><svg x="4234"><use xlink:href="#a"/><use xlink:href="#b" x="-.004" y="4.317"/><use xlink:href="#3"/><use xlink:href="#4" y="2.171"/></svg><svg x="4307"><use xlink:href="#a"/><use xlink:href="#b" x="10.996" y="4.317"/><use xlink:href="#3"/><use xlink:href="#4" y="2.171"/><use xlink:href="#5" y="4.342"/></svg><svg x="4380"><use xlink:href="#a"/><use xlink:href="#b" x="-.004" y="6.488"/><use xlink:href="#3"/><use xlink:href="#4" y="2.171"/><use xlink:href="#5" y="4.342"/></svg><svg x="4453"><use xlink:href="#a"/><use xlink:href="#b" x="-.004" y="8.659"/><use xlink:href="#3"/><use xlink:href="#4" y="2.171"/><use xlink:href="#5" y="4.342"/></svg><svg x="4526"><use xlink:href="#a"/><use xlink:href="#b" x="26.996" y="8.659"/><use xlink:href="#3"/><use xlink:href="#4" y="2.171"/><use xlink:href="#5" y="4.342"/><use xlink:href="#6" y="8.684"/></svg><svg x="4599"><use xlink:href="#a"/><use xlink:href="#b" x="-.004" y="10.83"/><use xlink:href="#3"/><use xlink:href="#4" y="2.171"/><use xlink:href="#5" y="4.342"/><use xlink:href="#6" y="8.684"/></svg><svg x="4672"><use xlink:href="#a"/><use xlink:href="#b" x="22.996" y="10.83"/><use xlink:href="#3"/><use xlink:href="#4" y="2.171"/><use xlink:href="#5" y="4.342"/><use xlink:href="#6" y="8.684"/><use xlink:href="#7" y="10.855"/></svg><svg x="4745"><use xlink:href="#a"/><use xlink:href="#b" x="23.996" y="10.83"/><use xlink:href="#3"/><use xlink:href="#4" y="2.171"/><use xlink:href="#5" y="4.342"/><use xlink:href="#6" y="8.684"/><use xlink:href="#8" y="10.855"/></svg><svg x="4818"><use xlink:href="#a"/><use xlink:href="#b" x="24.996" y="10.83"/><use xlink:href="#3"/><use xlink:href="#4" y="2.171"/><use xlink:href="#5" y="4.342"/><use xlink:href="#6" y="8.684"/><use xlink:href="#9" y="10.855"/></svg><svg x="4891"><use xlink:href="#a"/><use xlink:href="#b" x="25.996" y="10.83"/><use xlink:href="#3"/><use xlink:href="#4" y="2.171"/><use xlink:href="#5" y="4.342"/><use xlink:href="#6" y="8.684"/><use xlink:href="#10" y="10.855"/></svg><svg x="4964"><use xlink:href="#a"/><use xlink:href="#b" x="-.004" y="13.001"/><use xlink:href="#3"/><use xlink:href="#4" y="2.171"/><use xlink:href="#5" y="4.342"/><use xlink:href="#6" y="8.684"/><use xlink:href="#10" y="10.855"/></svg><svg x="5037"><use xlink:href="#a"/><use xlink:href="#b" x="-.004" y="15.172"/><use xlink:href="#3"/><use xlink:href="#4" y="2.171"/><use xlink:href="#5" y="4.342"/><use xlink:href="#6" y="8.684"/><use xlink:href="#10" y="10.855"/><use xlink:href="#11" y="13.026"/></svg><svg x="5110"><use xlink:href="#a"/><use xlink:href="#b" x="-.004" y="17.343"/><use xlink:href="#3"/><use xlink:href="#4" y="2.171"/><use xlink:href="#5" y="4.342"/><use xlink:href="#6" y="8.684"/><use xlink:href="#10" y="10.855"/><use xlink:href="#11" y="13.026"/><use xlink:href="#12" y="15.197"/></svg><svg x="5183"><use xlink:href="#a"/><use xlink:href="#b" x="-.004" y="19.514"/><use xlink:href="#3"/><use xlink:href="#4" y="2.171"/><use xlink:href="#5" y="4.342"/><use xlink:href="#6" y="8.684"/><use xlink:href="#10" y="10.855"/><use xlink:href="#11" y="13.026"/><use xlink:href="#12" y="15.197"/><use xlink:href="#22" y="17.368"/></svg><svg x="5256"><use xlink:href="#a"/><use xlink:href="#b" x="12.996" y="19.514"/><use xlink:href="#3"/><use xlink:href="#4" y="2.171"/><use xlink:href="#5" y="4.342"/><use xlink:href="#6" y="8.684"/><use xlink:href="#10" y="10.855"/><use xlink:href="#11" y="13.026"/><use xlink:href="#12" y="15.197"/><use xlink:href="#22" y="17.368"/><use xlink:href="#14" y="19.539"/></svg><svg x="5329"><use xlink:href="#a"/><use xlink:href="#b" x="13.996" y="19.514"/><use xlink:href="#3"/><use xlink:href="#4" y="2.171"/><use xlink:href="#5" y="4.342"/><use xlink:href="#6" y="8.684"/><use xlink:href="#10" y="10.855"/><use xlink:href="#11" y="13.026"/><use xlink:href="#12" y="15.197"/><use xlink:href="#22" y="17.368"/><use xlink:href="#15" y="19.539"/></svg><svg x="5402"><use xlink:href="#a"/><use xlink:href="#b" x="14.996" y="19.514"/><use xlink:href="#3"/><use xlink:href="#4" y="2.171"/><use xlink:href="#5" y="4.342"/><use xlink:href="#6" y="8.684"/><use xlink:href="#10" y="10.855"/><use xlink:href="#11" y="13.026"/><use xlink:href="#12" y="15.197"/><use xlink:href="#22" y="17.368"/><text y="21.209" class="g">Your</text><text x="5.01" y="21.209" class="g">answer:</text><text x="13.026" y="21.209" class="g">29</text></svg><svg x="5475"><use xlink:href="#a"/><use xlink:href="#b" x="15.996" y="19.514"/><use xlink:href="#3"/><use xlink:href="#4" y="2.171"/><use xlink:href="#5" y="4.342"/><use xlink:href="#6" y="8.684"/><use xlink:href="#10" y="10.855"/><use xlink:href="#11" y="13.026"/><use xlink:href="#12" y="15.197"/><use xlink:href="#22" y="17.368"/><text y="21.209" class="g">Your</text><text x="5.01" y="21.209" class="g">answer:</text><text x="13.026" y="21.209" class="g">291</text></svg><svg x="5548"><use xlink:href="#a"/><use xlink:href="#b" x="16.996" y="19.514"/><use xlink:href="#3"/><use xlink:href="#4" y="2.171"/><use xlink:href="#5" y="4.342"/><use xlink:href="#6" y="8.684"/><use xlink:href="#10" y="10.855"/><use xlink:href="#11" y="13.026"/><use xlink:href="#12" y="15.197"/><use xlink:href="#22" y="17.368"/><use xlink:href="#23" y="19.539"/></svg><svg x="5621"><use xlink:href="#a"/><use xlink:href="#b" x="-.004" y="21.685"/><use xlink:href="#3"/><use xlink:href="#4" y="2.171"/><use xlink:href="#5" y="4.342"/><use xlink:href="#6" y="8.684"/><use xlink:href="#10" y="10.855"/><use xlink:href="#11" y="13.026"/><use xlink:href="#12" y="15.197"/><use xlink:href="#22" y="17.368"/><use xlink:href="#23" y="19.539"/></svg><svg x="5694"><use xlink:href="#a"/><use xlink:href="#b" x="-.004" y="23.856"/><use xlink:href="#3"/><use xlink:href="#4" y="2.171"/><use xlink:href="#5" y="4.342"/><use xlink:href="#6" y="8.684"/><use xlink:href="#10" y="10.855"/><use xlink:href="#11" y="13.026"/><use xlink:href="#12" y="15.197"/><use xlink:href="#22" y="17.368"/><use xlink:href="#23" y="19.539"/><use xlink:href="#24" y="21.71"/></svg><svg x="5767"><use xlink:href="#a"/><use xlink:href="#b" x="-.004" y="26.027"/><use xlink:href="#3"/><use xlink:href="#4" y="2.171"/><use xlink:href="#5" y="4.342"/><use xlink:href="#6" y="8.684"/><use xlink:href="#10" y="10.855"/><use xlink:href="#11" y="13.026"/><use xlink:href="#12" y="15.197"/><use xlink:href="#22" y="17.368"/><use xlink:href="#23" y="19.539"/><use xlink:href="#24" y="21.71"/><use xlink:href="#25" y="23.881"/></svg><svg x="5840"><use xlink:href="#a"/><use xlink:href="#b" x="40.996" y="26.027"/><use xlink:href="#3"/><use xlink:href="#4" y="2.171"/><use xlink:href="#5" y="4.342"/><use xlink:href="#6" y="8.684"/><use xlink:href="#10" y="10.855"/><use xlink:href="#11" y="13.026"/><use xlink:href="#12" y="15.197"/><use xlink:href="#22" y="17.368"/><use xlink:href="#23" y="19.539"/><use xlink:href="#24" y="21.71"/><use xlink:href="#25" y="23.881"/><use xlink:href="#1" y="26.052"/></svg><svg x="5913"><use xlink:href="#a"/><use xlink:href="#b" x="-.004" y="28.198"/><use xlink:href="#3"/><use xlink:href="#4" y="2.171"/><use xlink:href="#5" y="4.342"/><use xlink:href="#6" y="8.684"/><use xlink:href="#10" y="10.855"/><use xlink:href="#11" y="13.026"/><use xlink:href="#12" y="15.197"/><use xlink:href="#22" y="17.368"/><use xlink:href="#23" y="19.539"/><use xlink:href="#24" y="21.71"/><use xlink:href="#25" y="23.881"/><text y="27.722" class="f">aktm@aktm-VirtualBox</text><text x="20.04" y="27.722" class="g">:</text><text x="21.042" y="27.722" class="h">~/php-project-lvl1</text><text x="39.078" y="27.722" class="g">$</text><text x="41.082" y="27.722" class="g">exit</text></svg></svg></g></g></svg></svg>