<svg xmlns="http://www.w3.org/2000/svg" xmlns:xlink="http://www.w3.org/1999/xlink" width="770" height="515.91"><rect width="770" height="515.91" rx="5" ry="5" class="a"/><svg y="0%" x="0%"><circle cx="20" cy="20" r="6" fill="#ff5f58"/><circle cx="40" cy="20" r="6" fill="#ffbd2e"/><circle cx="60" cy="20" r="6" fill="#18c132"/></svg><svg height="455.91" viewBox="0 0 73 45.591" width="730" x="15" xmlns="http://www.w3.org/2000/svg" xmlns:xlink="http://www.w3.org/1999/xlink" y="50"><style>@keyframes m{0%{transform:translateX(0)}.6%{transform:translateX(-73px)}9.5%{transform:translateX(-146px)}10.1%{transform:translateX(-219px)}13.2%{transform:translateX(-292px)}22.2%{transform:translateX(-365px)}23.5%{transform:translateX(-438px)}32%{transform:translateX(-584px)}40.9%{transform:translateX(-657px)}41.9%{transform:translateX(-730px)}45.4%{transform:translateX(-803px)}47.2%{transform:translateX(-876px)}49%{transform:translateX(-949px)}52.2%{transform:translateX(-1022px)}55.1%{transform:translateX(-1095px)}60%{transform:translateX(-1168px)}61%{transform:translateX(-1241px)}62.1%{transform:translateX(-1314px)}67.7%{transform:translateX(-1387px)}69.4%{transform:translateX(-1460px)}78.3%{transform:translateX(-1533px)}78.4%{transform:translateX(-1606px)}79.7%{transform:translateX(-1679px)}79.8%{transform:translateX(-1752px)}79.9%{transform:translateX(-1825px)}80%{transform:translateX(-2117px)}80.3%{transform:translateX(-2190px)}81.9%{transform:translateX(-2263px)}90.9%{transform:translateX(-2336px)}91%{transform:translateX(-2409px)}to{transform:translateX(-2482px)}}.a{fill:#282d35}.f{fill:#a8cc8c;font-weight:700;white-space:pre}.g{fill:#b9c0cb}.g,.h,.i,.j{white-space:pre}.h{fill:#71bef2;font-weight:700}.i,.j{fill:#a8cc8c}.j{fill:#dbab79}</style><g font-family="Monaco,Consolas,Menlo,'Bitstream Vera Sans Mono','Powerline Symbols',monospace" font-size="1.67"><defs><symbol id="8"><text y="1.67" class="i">Verifying</text><text x="10.02" y="1.67" class="i">lock</text><text x="15.03" y="1.67" class="i">file</text><text x="20.04" y="1.67" class="i">contents</text><text x="29.058" y="1.67" class="i">can</text><text x="33.066" y="1.67" class="i">be</text><text x="36.072" y="1.67" class="i">installed</text><text x="46.092" y="1.67" class="i">on</text><text x="49.098" y="1.67" class="i">current</text><text x="57.114" y="1.67" class="i">platform.</text></symbol><symbol id="1"><text y="1.67" class="f">aktm@aktm-VirtualBox</text><text x="20.04" y="1.67" class="g">:</text><text x="21.042" y="1.67" class="h">~</text><text x="22.044" y="1.67" class="g">$</text><text x="24.048" y="1.67" class="g">cd</text></symbol><symbol id="3"><text y="1.67" class="f">aktm@aktm-VirtualBox</text><text x="20.04" y="1.67" class="g">:</text><text x="21.042" y="1.67" class="h">~/php-project-lvl1</text><text x="39.078" y="1.67" class="g">$</text></symbol><symbol id="4"><text y="1.67" class="f">aktm@aktm-VirtualBox</text><text x="20.04" y="1.67" class="g">:</text><text x="21.042" y="1.67" class="h">~/php-project-lvl1</text><text x="39.078" y="1.67" class="g">$</text><text x="41.082" y="1.67" class="g">make</text></symbol><symbol id="5"><text y="1.67" class="f">aktm@aktm-VirtualBox</text><text x="20.04" y="1.67" class="g">:</text><text x="21.042" y="1.67" class="h">~/php-project-lvl1</text><text x="39.078" y="1.67" class="g">$</text><text x="41.082" y="1.67" class="g">make</text><text x="46.092" y="1.67" class="g">install</text></symbol><symbol id="6"><text y="1.67" class="g">composer</text><text x="9.018" y="1.67" class="g">install</text></symbol><symbol id="7"><text y="1.67" class="i">Installing</text><text x="11.022" y="1.67" class="i">dependencies</text><text x="24.048" y="1.67" class="i">from</text><text x="29.058" y="1.67" class="i">lock</text><text x="34.068" y="1.67" class="i">file</text><text x="39.078" y="1.67" class="i">(including</text><text x="50.1" y="1.67" class="i">require-dev)</text></symbol><symbol id="2"><text y="1.67" class="f">aktm@aktm-VirtualBox</text><text x="20.04" y="1.67" class="g">:</text><text x="21.042" y="1.67" class="h">~</text><text x="22.044" y="1.67" class="g">$</text><text x="24.048" y="1.67" class="g">cd</text><text x="27.054" y="1.67" class="g">php-project-lvl1/</text></symbol><symbol id="9"><text y="1.67" class="i">Package</text><text x="8.016" y="1.67" class="i">operations:</text><text x="20.04" y="1.67" class="i">2</text><text x="22.044" y="1.67" class="i">installs,</text><text x="32.064" y="1.67" class="i">0</text><text x="34.068" y="1.67" class="i">updates,</text><text x="43.086" y="1.67" class="i">0</text><text x="45.09" y="1.67" class="i">removals</text></symbol><symbol id="10"><text x="2.004" y="1.67" class="g">-</text><text x="4.008" y="1.67" class="g">Installing</text><text x="15.03" y="1.67" class="i">squizlabs/php_codesniffer</text><text x="41.082" y="1.67" class="g">(</text><text x="42.084" y="1.67" class="j">3.5.8</text><text x="47.094" y="1.67" class="g">):</text><text x="50.1" y="1.67" class="g">Extracting</text><text x="61.122" y="1.67" class="g">archive</text></symbol><symbol id="11"><text x="2.004" y="1.67" class="g">-</text><text x="4.008" y="1.67" class="g">Installing</text><text x="15.03" y="1.67" class="i">wp-cli/php-cli-tools</text><text x="36.072" y="1.67" class="g">(</text><text x="37.074" y="1.67" class="j">v0.11.11</text><text x="45.09" y="1.67" class="g">):</text><text x="48.096" y="1.67" class="g">Extracting</text><text x="59.118" y="1.67" class="g">archive</text></symbol><symbol id="12"><text y="1.67" class="i">Generating</text><text x="11.022" y="1.67" class="i">autoload</text><text x="20.04" y="1.67" class="i">files</text></symbol><symbol id="a"><path fill="transparent" d="M0 0h73v21H0z"/></symbol><symbol id="b"><path fill="#6f7683" d="M0 0h1.102v2.171H0z"/></symbol></defs><path class="a" d="M0 0h73v45.591H0z"/><g style="animation-duration:8.936218s;animation-iteration-count:infinite;animation-name:m;animation-timing-function:steps(1,end)"><svg width="2555"><svg><use xlink:href="#a"/><use xlink:href="#b" x="-.004"/></svg><svg x="73"><use xlink:href="#a"/><use xlink:href="#b" x="23.996"/><text y="1.67" class="f">aktm@aktm-VirtualBox</text><text x="20.04" y="1.67" class="g">:</text><text x="21.042" y="1.67" class="h">~</text><text x="22.044" y="1.67" class="g">$</text></svg><svg x="146"><use xlink:href="#a"/><use xlink:href="#b" x="24.996"/><text y="1.67" class="f">aktm@aktm-VirtualBox</text><text x="20.04" y="1.67" class="g">:</text><text x="21.042" y="1.67" class="h">~</text><text x="22.044" y="1.67" class="g">$</text><text x="24.048" y="1.67" class="g">c</text></svg><svg x="219"><use xlink:href="#a"/><use xlink:href="#b" x="25.996"/><use xlink:href="#1"/></svg><svg x="292"><use xlink:href="#a"/><use xlink:href="#b" x="26.996"/><use xlink:href="#1"/></svg><svg x="365"><use xlink:href="#a"/><use xlink:href="#b" x="27.996"/><text y="1.67" class="f">aktm@aktm-VirtualBox</text><text x="20.04" y="1.67" class="g">:</text><text x="21.042" y="1.67" class="h">~</text><text x="22.044" y="1.67" class="g">$</text><text x="24.048" y="1.67" class="g">cd</text><text x="27.054" y="1.67" class="g">p</text></svg><svg x="438"><use xlink:href="#a"/><use xlink:href="#b" x="43.996"/><use xlink:href="#2"/></svg><svg x="511"><use xlink:href="#a"/><use xlink:href="#b" x="-.004" y="2.146"/><use xlink:href="#2"/></svg><svg x="584"><use xlink:href="#a"/><use xlink:href="#b" x="40.996" y="2.146"/><use xlink:href="#2"/><use xlink:href="#3" y="2.171"/></svg><svg x="657"><use xlink:href="#a"/><use xlink:href="#b" x="41.996" y="2.146"/><use xlink:href="#2"/><text y="3.841" class="f">aktm@aktm-VirtualBox</text><text x="20.04" y="3.841" class="g">:</text><text x="21.042" y="3.841" class="h">~/php-project-lvl1</text><text x="39.078" y="3.841" class="g">$</text><text x="41.082" y="3.841" class="g">m</text></svg><svg x="730"><use xlink:href="#a"/><use xlink:href="#b" x="42.996" y="2.146"/><use xlink:href="#2"/><text y="3.841" class="f">aktm@aktm-VirtualBox</text><text x="20.04" y="3.841" class="g">:</text><text x="21.042" y="3.841" class="h">~/php-project-lvl1</text><text x="39.078" y="3.841" class="g">$</text><text x="41.082" y="3.841" class="g">ma</text></svg><svg x="803"><use xlink:href="#a"/><use xlink:href="#b" x="43.996" y="2.146"/><use xlink:href="#2"/><text y="3.841" class="f">aktm@aktm-VirtualBox</text><text x="20.04" y="3.841" class="g">:</text><text x="21.042" y="3.841" class="h">~/php-project-lvl1</text><text x="39.078" y="3.841" class="g">$</text><text x="41.082" y="3.841" class="g">mak</text></svg><svg x="876"><use xlink:href="#a"/><use xlink:href="#b" x="44.996" y="2.146"/><use xlink:href="#2"/><use xlink:href="#4" y="2.171"/></svg><svg x="949"><use xlink:href="#a"/><use xlink:href="#b" x="45.996" y="2.146"/><use xlink:href="#2"/><use xlink:href="#4" y="2.171"/></svg><svg x="1022"><use xlink:href="#a"/><use xlink:href="#b" x="46.996" y="2.146"/><use xlink:href="#2"/><text y="3.841" class="f">aktm@aktm-VirtualBox</text><text x="20.04" y="3.841" class="g">:</text><text x="21.042" y="3.841" class="h">~/php-project-lvl1</text><text x="39.078" y="3.841" class="g">$</text><text x="41.082" y="3.841" class="g">make</text><text x="46.092" y="3.841" class="g">i</text></svg><svg x="1095"><use xlink:href="#a"/><use xlink:href="#b" x="47.996" y="2.146"/><use xlink:href="#2"/><text y="3.841" class="f">aktm@aktm-VirtualBox</text><text x="20.04" y="3.841" class="g">:</text><text x="21.042" y="3.841" class="h">~/php-project-lvl1</text><text x="39.078" y="3.841" class="g">$</text><text x="41.082" y="3.841" class="g">make</text><text x="46.092" y="3.841" class="g">in</text></svg><svg x="1168"><use xlink:href="#a"/><use xlink:href="#b" x="48.996" y="2.146"/><use xlink:href="#2"/><text y="3.841" class="f">aktm@aktm-VirtualBox</text><text x="20.04" y="3.841" class="g">:</text><text x="21.042" y="3.841" class="h">~/php-project-lvl1</text><text x="39.078" y="3.841" class="g">$</text><text x="41.082" y="3.841" class="g">make</text><text x="46.092" y="3.841" class="g">ins</text></svg><svg x="1241"><use xlink:href="#a"/><use xlink:href="#b" x="49.996" y="2.146"/><use xlink:href="#2"/><text y="3.841" class="f">aktm@aktm-VirtualBox</text><text x="20.04" y="3.841" class="g">:</text><text x="21.042" y="3.841" class="h">~/php-project-lvl1</text><text x="39.078" y="3.841" class="g">$</text><text x="41.082" y="3.841" class="g">make</text><text x="46.092" y="3.841" class="g">inst</text></svg><svg x="1314"><use xlink:href="#a"/><use xlink:href="#b" x="50.996" y="2.146"/><use xlink:href="#2"/><text y="3.841" class="f">aktm@aktm-VirtualBox</text><text x="20.04" y="3.841" class="g">:</text><text x="21.042" y="3.841" class="h">~/php-project-lvl1</text><text x="39.078" y="3.841" class="g">$</text><text x="41.082" y="3.841" class="g">make</text><text x="46.092" y="3.841" class="g">insta</text></svg><svg x="1387"><use xlink:href="#a"/><use xlink:href="#b" x="51.996" y="2.146"/><use xlink:href="#2"/><text y="3.841" class="f">aktm@aktm-VirtualBox</text><text x="20.04" y="3.841" class="g">:</text><text x="21.042" y="3.841" class="h">~/php-project-lvl1</text><text x="39.078" y="3.841" class="g">$</text><text x="41.082" y="3.841" class="g">make</text><text x="46.092" y="3.841" class="g">instal</text></svg><svg x="1460"><use xlink:href="#a"/><use xlink:href="#b" x="52.996" y="2.146"/><use xlink:href="#2"/><use xlink:href="#5" y="2.171"/></svg><svg x="1533"><use xlink:href="#a"/><use xlink:href="#b" x="-.004" y="4.317"/><use xlink:href="#2"/><use xlink:href="#5" y="2.171"/></svg><svg x="1606"><use xlink:href="#a"/><use xlink:href="#b" x="-.004" y="6.488"/><use xlink:href="#2"/><use xlink:href="#5" y="2.171"/><use xlink:href="#6" y="4.342"/></svg><svg x="1679"><use xlink:href="#a"/><use xlink:href="#b" x="-.004" y="8.659"/><use xlink:href="#2"/><use xlink:href="#5" y="2.171"/><use xlink:href="#6" y="4.342"/><use xlink:href="#7" y="6.513"/></svg><svg x="1752"><use xlink:href="#a"/><use xlink:href="#b" x="-.004" y="10.83"/><use xlink:href="#2"/><use xlink:href="#5" y="2.171"/><use xlink:href="#6" y="4.342"/><use xlink:href="#7" y="6.513"/><use xlink:href="#8" y="8.684"/></svg><svg x="1825"><use xlink:href="#a"/><use xlink:href="#b" x="-.004" y="13.001"/><use xlink:href="#2"/><use xlink:href="#5" y="2.171"/><use xlink:href="#6" y="4.342"/><use xlink:href="#7" y="6.513"/><use xlink:href="#8" y="8.684"/><use xlink:href="#9" y="10.855"/></svg><svg x="1898"><use xlink:href="#a"/><use xlink:href="#b" x="-.004" y="13.001"/><use xlink:href="#2"/><use xlink:href="#5" y="2.171"/><use xlink:href="#6" y="4.342"/><use xlink:href="#7" y="6.513"/><use xlink:href="#8" y="8.684"/><use xlink:href="#9" y="10.855"/></svg><svg x="1971"><use xlink:href="#a"/><use xlink:href="#b" x="-.004" y="15.172"/><use xlink:href="#2"/><use xlink:href="#5" y="2.171"/><use xlink:href="#6" y="4.342"/><use xlink:href="#7" y="6.513"/><use xlink:href="#8" y="8.684"/><use xlink:href="#9" y="10.855"/><use xlink:href="#10" y="13.026"/></svg><svg x="2044"><use xlink:href="#a"/><use xlink:href="#b" x="-.004" y="17.343"/><use xlink:href="#2"/><use xlink:href="#5" y="2.171"/><use xlink:href="#6" y="4.342"/><use xlink:href="#7" y="6.513"/><use xlink:href="#8" y="8.684"/><use xlink:href="#9" y="10.855"/><use xlink:href="#10" y="13.026"/><use xlink:href="#11" y="15.197"/></svg><svg x="2117"><use xlink:href="#a"/><use xlink:href="#b" x="39.996" y="17.343"/><use xlink:href="#2"/><use xlink:href="#5" y="2.171"/><use xlink:href="#6" y="4.342"/><use xlink:href="#7" y="6.513"/><use xlink:href="#8" y="8.684"/><use xlink:href="#9" y="10.855"/><use xlink:href="#10" y="13.026"/><use xlink:href="#11" y="15.197"/><text x="1.002" y="19.038" class="g">0/2</text><text x="5.01" y="19.038" class="g">[&gt;---------------------------]</text><text x="38.076" y="19.038" class="g">0%</text></svg><svg x="2190"><use xlink:href="#a"/><use xlink:href="#b" x="39.996" y="17.343"/><use xlink:href="#2"/><use xlink:href="#5" y="2.171"/><use xlink:href="#6" y="4.342"/><use xlink:href="#7" y="6.513"/><use xlink:href="#8" y="8.684"/><use xlink:href="#9" y="10.855"/><use xlink:href="#10" y="13.026"/><use xlink:href="#11" y="15.197"/><text x="1.002" y="19.038" class="g">1/2</text><text x="5.01" y="19.038" class="g">[==============&gt;-------------]</text><text x="37.074" y="19.038" class="g">50%</text></svg><svg x="2263"><use xlink:href="#a"/><use xlink:href="#b" x="-.004" y="17.343"/><use xlink:href="#2"/><use xlink:href="#5" y="2.171"/><use xlink:href="#6" y="4.342"/><use xlink:href="#7" y="6.513"/><use xlink:href="#8" y="8.684"/><use xlink:href="#9" y="10.855"/><use xlink:href="#10" y="13.026"/><use xlink:href="#11" y="15.197"/></svg><svg x="2336"><use xlink:href="#a"/><use xlink:href="#b" x="-.004" y="19.514"/><use xlink:href="#2"/><use xlink:href="#5" y="2.171"/><use xlink:href="#6" y="4.342"/><use xlink:href="#7" y="6.513"/><use xlink:href="#8" y="8.684"/><use xlink:href="#9" y="10.855"/><use xlink:href="#10" y="13.026"/><use xlink:href="#11" y="15.197"/><use xlink:href="#12" y="17.368"/></svg><svg x="2409"><use xlink:href="#a"/><use xlink:href="#b" x="40.996" y="19.514"/><use xlink:href="#2"/><use xlink:href="#5" y="2.171"/><use xlink:href="#6" y="4.342"/><use xlink:href="#7" y="6.513"/><use xlink:href="#8" y="8.684"/><use xlink:href="#9" y="10.855"/><use xlink:href="#10" y="13.026"/><use xlink:href="#11" y="15.197"/><use xlink:href="#12" y="17.368"/><use xlink:href="#3" y="19.539"/></svg><svg x="2482"><use xlink:href="#a"/><use xlink:href="#b" x="-.004" y="21.685"/><use xlink:href="#2"/><use xlink:href="#5" y="2.171"/><use xlink:href="#6" y="4.342"/><use xlink:href="#7" y="6.513"/><use xlink:href="#8" y="8.684"/><use xlink:href="#9" y="10.855"/><use xlink:href="#10" y="13.026"/><use xlink:href="#11" y="15.197"/><use xlink:href="#12" y="17.368"/><text y="21.209" class="f">aktm@aktm-VirtualBox</text><text x="20.04" y="21.209" class="g">:</text><text x="21.042" y="21.209" class="h">~/php-project-lvl1</text><text x="39.078" y="21.209" class="g">$</text><text x="41.082" y="21.209" class="g">exit</text></svg></svg></g></g></svg></svg>